<?xml version="1.0" encoding="UTF-8" standalone="no"?>
<!-- Created with Inkscape (http://www.inkscape.org/) -->

<svg
   xmlns:dc="http://purl.org/dc/elements/1.1/"
   xmlns:cc="http://creativecommons.org/ns#"
   xmlns:rdf="http://www.w3.org/1999/02/22-rdf-syntax-ns#"
   xmlns:svg="http://www.w3.org/2000/svg"
   xmlns="http://www.w3.org/2000/svg"
   xmlns:sodipodi="http://sodipodi.sourceforge.net/DTD/sodipodi-0.dtd"
   xmlns:inkscape="http://www.inkscape.org/namespaces/inkscape"
   id="svg2"
   version="1.1"
   inkscape:version="0.91 r"
   xml:space="preserve"
   width="571.20758"
   height="472.57312"
   viewBox="0 0 571.20758 472.57312"
   sodipodi:docname="plotclock_beta1.svg"><metadata
     id="metadata8"><rdf:RDF><cc:Work
         rdf:about=""><dc:format>image/svg+xml</dc:format><dc:type
           rdf:resource="http://purl.org/dc/dcmitype/StillImage" /><dc:title></dc:title></cc:Work></rdf:RDF></metadata><defs
     id="defs6" /><sodipodi:namedview
     pagecolor="#ffffff"
     bordercolor="#666666"
     borderopacity="1"
     objecttolerance="10"
     gridtolerance="10"
     guidetolerance="10"
     inkscape:pageopacity="0"
     inkscape:pageshadow="2"
     inkscape:window-width="1600"
     inkscape:window-height="848"
     id="namedview4"
     showgrid="false"
     inkscape:zoom="1.4064953"
     inkscape:cx="287.02576"
     inkscape:cy="236.28656"
     inkscape:window-x="0"
     inkscape:window-y="0"
     inkscape:window-maximized="1"
     inkscape:current-layer="g10" /><g
     id="g10"
     inkscape:groupmode="layer"
     inkscape:label="plotclock_beta1"
     transform="matrix(1.25,0,0,-1.25,0,472.57313)"><g
       transform="matrix(0,-1,1,0,0,378.0585)"
       id="g14"
       style="stroke:#ff0000;stroke-opacity:1;stroke-width:0.28346457;stroke-miterlimit:4;stroke-dasharray:none;fill:none"><path
         inkscape:connector-curvature="0"
         id="path16"
         style="fill:none;stroke:#ff0000;stroke-width:0.28346457;stroke-linecap:round;stroke-linejoin:round;stroke-miterlimit:4;stroke-dasharray:none;stroke-opacity:1"
         d="m 358.137,352.137 0.48,0.722 0.36,0.84 0.121,0.961 -0.121,0.84 -0.36,0.957 -0.48,0.723 -0.719,0.48 -0.961,0.36 -0.84,0.117 -0.957,-0.117 -0.84,-0.36 -0.722,-0.48 -0.598,-0.723 -0.363,-0.957 -0.117,-0.84 0.117,-0.961 0.363,-0.84 0.598,-0.722 0.722,-0.598 0.84,-0.359 0.957,-0.121 0.84,0.121 0.961,0.359 0.719,0.598 z m -104.637,15.242 0,-36.84 -65.16,0 0,36.84 -72.242,0 0,-19.801 8.519,0 0,-9.961 11.281,0 0,3.602 7.68,0 0,-3.602 15.84,0 0,-8.519 -15.84,0 0,-3.481 -7.68,0 0,3.481 -11.281,0 0,-9.84 -8.519,0 0,-17.039 144.48,0 0,-8.52 8.52,0 0,54.719 96.359,0 0,18.961 -111.957,0 z m -70.441,-18 0.718,-0.719 0.243,-0.601 0.117,-0.481 -0.117,-0.601 -0.243,-0.477 -0.359,-0.48 -0.359,-0.36 -0.481,-0.121 -0.601,-0.121 -0.598,0.121 -0.481,0.121 -0.48,0.36 -0.238,0.48 -0.242,0.477 -0.118,0.601 0.118,0.481 0.242,0.601 0.238,0.36 0.48,0.359 0.481,0.238 1.199,0 0.481,-0.238 z m 75,-0.719 0.359,0.36 0.48,0.359 0.481,0.238 1.078,0 0.481,-0.238 0.48,-0.359 0.359,-0.36 0.243,-0.601 0,-1.082 -0.243,-0.477 -0.359,-0.48 -0.48,-0.36 -0.961,-0.242 -0.598,0.121 -0.481,0.121 -0.48,0.36 -0.359,0.48 -0.239,0.477 0,1.082 0.239,0.601 z" /></g><g
       transform="matrix(0,-1,1,0,0,378.0585)"
       id="g18"
       style="stroke:#ff0000;stroke-opacity:1;stroke-width:0.28346457;stroke-miterlimit:4;stroke-dasharray:none;fill:none"><path
         inkscape:connector-curvature="0"
         id="path20"
         style="fill:none;stroke:#ff0000;stroke-width:0.28346457;stroke-linecap:round;stroke-linejoin:round;stroke-miterlimit:4;stroke-dasharray:none;stroke-opacity:1"
         d="m 292.859,108.898 0,-103.441 -144.601,0 0,8.52 -8.52,0 0,180 8.52,0 0,8.402 -8.52,0 0,44.039 56.762,0 0,-42.598 96.359,0 0,-86.402 -8.519,0 0,-8.52 8.519,0 z m -7.082,148.801 0,14.278 -8.519,0 0,-14.278 8.519,0 z M 337.5,115.5 l -0.84,-0.723 -0.722,-0.839 -0.36,-1.079 -0.238,-1.082 0.238,-1.078 0.36,-1.082 0.722,-0.84 0.84,-0.718 1.078,-0.36 1.082,-0.242 1.078,0.242 1.082,0.36 0.84,0.718 0.719,0.84 0.359,1.082 0.121,1.078 -0.121,1.082 -0.359,1.079 -0.719,0.839 -0.84,0.723 -1.082,0.359 -1.078,0.118 -1.082,-0.118 -1.078,-0.359 z m 36.117,-111.48 0,103.437 -19.797,0 0,8.52 19.797,0 0,163.082 -100.558,0 0,-34.082 35.398,0 0,-43.918 -8.519,0 0,-8.52 8.519,0 0,-76.562 17.043,0 0,-8.52 -17.043,0 0,-94.918 -8.519,0 0,-8.519 73.679,0 z m -143.758,269.64 -0.48,-0.722 -0.359,-0.84 -0.122,-0.961 0.122,-0.84 0.359,-0.84 0.48,-0.719 0.719,-0.601 0.84,-0.36 0.961,-0.117 0.961,0.117 0.84,0.36 0.718,0.601 0.602,0.719 0.359,0.84 0.118,0.84 -0.118,0.961 -0.359,0.84 -0.602,0.722 -0.718,0.598 -0.84,0.359 -0.961,0.121 -0.961,-0.121 -0.84,-0.359 -0.719,-0.598 z m -75.961,-5.883 0.84,0.36 0.84,0.601 0.481,0.719 0.359,0.84 0.121,0.84 -0.121,0.961 -0.359,0.84 -0.481,0.722 -0.84,0.598 -0.84,0.359 -0.839,0.121 -0.961,-0.121 -0.84,-0.359 -0.719,-0.598 -0.601,-0.722 -0.36,-0.84 -0.121,-0.961 0.121,-0.84 0.36,-0.84 0.601,-0.719 0.719,-0.601 0.84,-0.36 0.961,-0.117 0.839,0.117 z m 83.161,-4.558 -2.282,-0.961 -2.398,-0.36 -79.32,0 -2.399,0.36 -2.281,0.961 -1.922,1.441 -1.437,1.918 -0.961,2.281 -0.239,2.278 0.239,2.402 0.961,2.281 1.437,1.918 1.922,1.442 2.281,0.957 2.399,0.363 79.32,0 2.398,-0.363 2.282,-0.957 1.918,-1.442 1.441,-1.918 0.961,-2.281 0.238,-2.402 -0.238,-2.278 -0.961,-2.281 -1.441,-1.918 -1.918,-1.441 z" /></g><g
       transform="matrix(0,-1,1,0,0,378.0585)"
       id="g22"
       style="stroke:#ff0000;stroke-opacity:1;stroke-width:0.28346457;stroke-miterlimit:4;stroke-dasharray:none;fill:none"><path
         inkscape:connector-curvature="0"
         id="path24"
         style="fill:none;stroke:#ff0000;stroke-width:0.28346457;stroke-linecap:round;stroke-linejoin:round;stroke-miterlimit:4;stroke-dasharray:none;stroke-opacity:1"
         d="m 91.859,285.18 0.239,0.48 0.48,0.36 0.481,0.117 0.601,0.121 0.598,-0.121 0.48,-0.117 0.481,-0.36 0.238,-0.48 0.242,-0.481 0.121,-0.601 -0.121,-0.481 -0.242,-0.597 -0.238,-0.36 -0.481,-0.363 -0.48,-0.238 -0.598,-0.121 -0.601,0.121 -0.481,0.238 -0.48,0.363 -0.239,0.36 -0.242,0.597 -0.117,0.481 0.117,0.601 0.242,0.481 z m -77.64,-2.52 0.48,-0.363 0.481,-0.238 0.48,-0.121 0.598,0.121 0.48,0.238 0.481,0.363 0.359,0.36 0.242,0.597 0,1.082 -0.242,0.481 -0.359,0.48 -0.481,0.36 -0.48,0.117 -0.598,0.121 -0.48,-0.121 -0.481,-0.117 -0.48,-0.36 -0.36,-0.48 -0.242,-0.481 0,-1.082 0.242,-0.597 0.36,-0.36 z m 89.398,-24 0.723,0 0,42.477 -17.043,0 0,-34.078 -65.16,0 0,34.078 -15.598,0 0,-42.477 97.078,0 0.723,-0.363 -0.723,0.363 z m -85.558,57.957 0.121,-1.199 0.359,-0.961 0.719,-0.84 0.84,-0.719 1.082,-0.48 1.078,-0.121 1.082,0.121 1.078,0.48 0.84,0.719 0.719,0.84 0.363,0.961 0.117,1.199 -0.117,1.082 -0.363,0.961 -0.719,0.957 -0.84,0.602 -1.078,0.48 -1.082,0.121 -1.078,-0.121 -1.082,-0.48 -0.84,-0.602 -0.719,-0.957 -0.359,-0.961 -0.121,-1.082 z m 55.918,43.203 -0.957,0.477 -1.2,0.121 -1.082,-0.121 -0.961,-0.477 -0.957,-0.601 -0.601,-0.961 -0.481,-0.961 -0.121,-1.078 0.121,-1.082 0.481,-1.078 0.601,-0.84 0.957,-0.719 0.961,-0.363 1.082,-0.239 1.2,0.239 0.957,0.363 0.843,0.719 0.719,0.84 0.481,1.078 0.117,1.082 -0.117,1.078 -0.481,0.961 -0.719,0.961 -0.843,0.601 z m 7.441,-1.082 -0.961,2.399 -1.559,2.043 -2.039,1.558 -2.402,1.082 -2.637,0.239 -41.043,-4.922 0,-36 -8.519,0 -2.16,-0.36 -2.039,-0.839 -1.801,-1.321 -1.32,-1.797 -0.84,-2.043 -0.36,-2.16 0.36,-2.277 0.84,-2.043 1.32,-1.68 1.801,-1.437 2.039,-0.84 2.16,-0.242 8.519,0 0,-29.879 11.282,0 0,17.039 9.961,0 0,11.281 -3.481,0 0,7.68 3.481,0 0,7.441 8.519,0 0,-7.441 3.481,0 0,-7.68 -3.481,0 0,-11.281 9.961,0 0,-17.039 11.277,0 0,78 -0.359,2.519 z" /></g><g
       transform="matrix(0,-1,1,0,0,378.0585)"
       id="g26"
       style="stroke:#ff0000;stroke-opacity:1;stroke-width:0.28346457;stroke-miterlimit:4;stroke-dasharray:none;fill:none"><path
         inkscape:connector-curvature="0"
         id="path28"
         style="fill:none;stroke:#ff0000;stroke-width:0.28346457;stroke-linecap:round;stroke-linejoin:round;stroke-miterlimit:4;stroke-dasharray:none;stroke-opacity:1"
         d="m 101.098,113.219 0.84,-0.602 0.722,-0.957 0.36,-0.961 0.238,-1.082 -0.238,-1.199 -0.36,-0.961 -0.722,-0.84 -0.84,-0.719 -1.078,-0.48 -1.082,-0.121 -1.079,0.121 -1.082,0.48 -0.839,0.719 -0.719,0.84 -0.36,0.961 -0.121,1.199 0.121,1.082 0.36,0.961 0.719,0.957 0.839,0.602 1.082,0.48 1.079,0.121 1.082,-0.121 1.078,-0.48 z m -0.598,8.281 -0.48,-0.242 -0.481,-0.238 -0.601,-0.122 -0.481,0.122 -0.598,0.238 -0.359,0.242 -0.363,0.477 -0.239,0.48 -0.121,0.602 0.121,0.48 0.239,0.598 0.722,0.722 0.598,0.239 0.481,0.121 0.601,-0.121 0.481,-0.239 0.48,-0.359 0.359,-0.363 0.118,-0.598 0.121,-0.48 -0.121,-0.602 -0.118,-0.48 -0.359,-0.477 z m -0.961,81.598 0.481,-0.239 0.48,-0.359 0.359,-0.48 0.118,-0.481 0.121,-0.601 -0.121,-0.481 -0.118,-0.48 -0.359,-0.477 -0.48,-0.363 -0.481,-0.239 -1.082,0 -0.598,0.239 -0.359,0.363 -0.363,0.477 -0.239,0.48 -0.121,0.481 0.121,0.601 0.239,0.481 0.363,0.48 0.359,0.359 0.598,0.239 1.082,0 z m 1.438,-106.918 -0.36,-0.481 -0.48,-0.359 -0.477,-0.121 -0.48,-0.121 -0.602,0.121 -0.48,0.121 -0.481,0.359 -0.359,0.481 -0.238,0.48 0,1.078 0.238,0.481 0.359,0.48 0.481,0.36 0.48,0.238 1.082,0 0.477,-0.238 0.48,-0.36 0.36,-0.48 0.242,-0.481 0,-1.078 -0.242,-0.48 z m -3.957,-76.922 0,0.601 0.238,0.481 0.359,0.48 0.961,0.477 0.602,0.121 0.48,-0.121 0.477,-0.238 0.48,-0.239 0.36,-0.48 0.242,-0.481 0,-1.199 -0.242,-0.48 -0.36,-0.481 -0.48,-0.242 -0.477,-0.238 -0.48,-0.121 -0.602,0.121 -0.48,0.238 -0.481,0.242 -0.359,0.481 -0.238,0.48 0,0.598 z m 18.957,110.16 -34.079,0 0,65.16 34.079,0 0,-65.16 z m 0.121,-38.641 -33.961,0 0,-65.16 33.961,0 0,65.16 z m -42.481,14.52 0,-96.719 51,0 0,96.719 -11.519,0 0,8.523 11.519,0 0,97.797 -51,0 0,-97.797 11.16,0 0,-8.523 -11.16,0 z m -38.519,2.762 0,-1.2 -0.239,-0.48 -0.359,-0.481 -0.363,-0.238 -0.598,-0.242 -0.48,-0.121 -0.602,0.121 -0.48,0.242 -0.477,0.238 -0.363,0.481 -0.117,0.48 -0.122,0.598 0.122,0.602 0.117,0.48 0.363,0.481 0.477,0.238 0.48,0.242 0.602,0.117 0.48,-0.117 0.598,-0.242 0.363,-0.238 0.359,-0.481 0.239,-0.48 z M 31.5,28.02 l -0.363,0.48 -0.117,0.477 -0.122,0.48 0.122,0.602 0.117,0.48 0.363,0.481 0.477,0.359 0.48,0.121 0.602,0.117 0.48,-0.117 0.598,-0.121 0.363,-0.359 0.359,-0.481 0.239,-0.48 0,-1.082 -0.239,-0.477 -0.359,-0.48 -0.363,-0.36 -0.598,-0.242 -1.082,0 -0.48,0.242 -0.477,0.36 z m -0.48,-8.403 -0.84,-0.719 -0.723,-0.839 -0.359,-0.961 -0.121,-1.078 0.121,-1.082 0.359,-0.961 0.723,-0.84 0.84,-0.598 0.957,-0.48 1.082,-0.121 1.078,0.121 0.961,0.48 0.84,0.598 0.601,0.84 0.481,0.961 0.117,1.082 -0.117,1.078 -0.481,0.961 -0.601,0.839 -0.84,0.719 -0.961,0.36 -1.078,0.121 -1.082,-0.121 -0.957,-0.36 z m 18.957,81.481 -33.957,0 0,-65.16 33.957,0 0,65.16 z M 18.898,20.34 l -11.398,0 0,97.797 51,0 0,-97.797 -11.281,0 0,-8.52 -28.321,0 0,8.52 z m -5.64,154.32 -0.719,5.637 0.719,5.523 2.16,5.157 3.48,4.562 9.122,40.32 0,-9.359 14.64,0 6.719,-30.961 3.359,-4.562 2.16,-5.157 0.719,-5.523 -0.719,-5.637 -2.16,-5.16 0.602,-8.523 2.277,-1.68 4.563,5.883 3,7.32 1.078,7.797 -1.078,7.801 -3,7.199 -4.563,6 -3.597,25.203 10.437,0 0,1.438 8.52,0 0,-1.918 5.043,1.918 0,5.64 -36,0 0,2.879 36,0 0,5.641 -5.043,2.039 0,-2.039 -8.52,0 0,1.441 -27.238,0 0,-9.601 -1.199,0 0,9.601 -13.563,0 -7.918,-42.242 -4.562,-6 -3,-7.199 -0.957,-7.801 0.957,-7.797 3,-7.32 4.562,-5.883 2.281,1.68 0.598,8.523 -2.16,5.16 z" /></g><g
       transform="matrix(0,1,-1,0,0,378.0585)"
       id="g30"
       style="stroke:#ff0000;stroke-opacity:1;stroke-width:0.28346457;stroke-miterlimit:4;stroke-dasharray:none;fill:none"><path
         inkscape:connector-curvature="0"
         id="path32"
         style="fill:none;stroke:#ff0000;stroke-width:0.28346457;stroke-linecap:round;stroke-linejoin:round;stroke-miterlimit:4;stroke-dasharray:none;stroke-opacity:1"
         d="m -261.836,-433.871 -0.242,-1.082 0.242,-1.078 0.359,-1.082 0.719,-0.84 0.84,-0.719 0.961,-0.359 1.078,-0.121 1.203,0.121 0.957,0.359 0.84,0.719 0.723,0.84 0.359,1.082 0.238,1.078 -0.238,1.082 -0.359,0.961 -0.723,0.957 -0.84,0.601 -0.957,0.481 -1.203,0.117 -1.078,-0.117 -0.961,-0.481 -0.84,-0.601 -0.719,-0.957 -0.359,-0.961 z" /></g><path
       inkscape:connector-curvature="0"
       id="path34"
       style="fill:none;fill-opacity:1;fill-rule:nonzero;stroke:#00ff00;stroke-opacity:1;stroke-width:0.28346457;stroke-miterlimit:4;stroke-dasharray:none"
       d="m 445.965,20.605 c -0.25,-3.574 -2.129,-7.062 -5.242,-8.906 -4.258,-2.656 -10.473,-1.984 -13.75,1.938 -2.028,2.211 -3.211,5.25 -2.879,8.277 0.043,1.43 0.445,2.816 1.14,4.051 0.481,1.504 0.266,3.133 0.532,4.687 0.925,10.547 1.695,21.117 2.836,31.637 0.722,3.473 4.664,5.734 8.058,4.773 2.918,-0.722 5.008,-3.613 4.965,-6.601 0.902,-11.195 2.004,-22.371 2.973,-33.563 0.054,-1.078 0.754,-1.984 0.953,-3.047 0.269,-1.058 0.476,-2.148 0.414,-3.246 z" /><g
       transform="matrix(0,1,-1,0,0,378.0585)"
       id="g36"
       style="stroke:#ff0000;stroke-opacity:1;stroke-width:0.28346457;stroke-miterlimit:4;stroke-dasharray:none;fill:none"><path
         inkscape:connector-curvature="0"
         id="path38"
         style="fill:none;stroke:#ff0000;stroke-width:0.28346457;stroke-linecap:round;stroke-linejoin:round;stroke-miterlimit:4;stroke-dasharray:none;stroke-opacity:1"
         d="m -356.914,-428.469 -1.676,0 -1.668,-0.832 -1.398,-1.117 -1.114,-1.113 -0.554,-1.668 -0.281,-1.676 0.281,-1.668 0.554,-1.668 1.114,-1.398 1.398,-1.114 1.668,-0.554 1.676,-0.282 1.668,0.282 1.668,0.554 1.113,1.114 1.117,1.398 0.832,1.668 0,3.344 -0.832,1.668 -2.23,2.23 -1.668,0.832 -1.668,0 z" /></g><g
       transform="matrix(0,1,-1,0,0,378.0585)"
       id="g40"
       style="stroke:#ff0000;stroke-opacity:1;stroke-width:0.28346457;stroke-miterlimit:4;stroke-dasharray:none;fill:none"><path
         inkscape:connector-curvature="0"
         id="path42"
         style="fill:none;stroke:#ff0000;stroke-width:0.28346457;stroke-linecap:round;stroke-linejoin:round;stroke-miterlimit:4;stroke-dasharray:none;stroke-opacity:1"
         d="m -373.438,-439.391 1.68,-4.082 2.762,-3.48 3.476,-2.758 4.082,-1.68 4.442,-0.601 4.32,0.601 4.199,1.68 3.481,2.758 75.117,0 3.602,-2.758 4.078,-1.68 4.32,-0.601 4.441,0.601 4.079,1.68 3.601,2.758 2.641,3.48 1.679,4.082 0.602,4.438 -0.602,4.32 -1.679,4.199 -2.641,3.481 -3.601,2.762 -4.079,1.679 -4.441,0.602 -4.32,-0.602 -4.078,-1.679 -3.602,-2.762 -75.117,0 -3.481,2.762 -4.199,1.679 -4.32,0.602 -4.442,-0.602 -4.082,-1.679 -3.476,-2.762 -2.762,-3.481 -1.68,-4.199 -0.601,-4.32 0.601,-4.438 z" /></g><path
       inkscape:connector-curvature="0"
       id="path44"
       style="fill:none;fill-opacity:1;fill-rule:nonzero;stroke:#00ff00;stroke-opacity:1;stroke-width:0.28346457;stroke-miterlimit:4;stroke-dasharray:none"
       d="m 409.773,22.461 c -0.246,-3.555 -2.097,-7.031 -5.199,-8.879 -4.273,-2.699 -10.469,-2 -13.824,1.844 -1.84,2.133 -3.055,4.91 -2.871,7.769 0.019,1.406 0.203,2.828 0.91,4.059 0.781,1.597 0.504,3.457 0.77,5.172 0.945,10.535 1.699,21.09 2.816,31.609 0.648,3.227 4,5.574 7.273,5.098 3.102,-0.344 5.559,-3.16 5.735,-6.235 0.383,-5.406 0.965,-10.8 1.418,-16.207 0.554,-6.195 1.109,-12.39 1.664,-18.586 0.808,-1.746 1.375,-3.683 1.308,-5.644 z" /><g
       transform="matrix(0,1,-1,0,0,378.0585)"
       id="g46"
       style="stroke:#ff0000;stroke-opacity:1;stroke-width:0.28346457;stroke-miterlimit:4;stroke-dasharray:none;fill:none"><path
         inkscape:connector-curvature="0"
         id="path48"
         style="fill:none;stroke:#ff0000;stroke-width:0.28346457;stroke-linecap:round;stroke-linejoin:round;stroke-miterlimit:4;stroke-dasharray:none;stroke-opacity:1"
         d="m -355.141,-405.078 1.59,0.269 1.594,0.528 1.336,1.066 0.797,1.332 0.797,1.594 0.269,1.601 -0.269,1.594 -0.797,1.594 -0.797,1.336 -1.336,0.797 -1.594,0.797 -3.195,0 -1.594,-0.797 -1.332,-0.797 -1.066,-1.336 -0.528,-1.594 -0.269,-1.594 0.269,-1.601 0.528,-1.594 1.066,-1.332 1.332,-1.066 1.594,-0.528 1.605,-0.269 z" /></g><g
       transform="matrix(0,1,-1,0,0,378.0585)"
       id="g50"
       style="stroke:#ff0000;stroke-opacity:1;stroke-width:0.28346457;stroke-miterlimit:4;stroke-dasharray:none;fill:none"><path
         inkscape:connector-curvature="0"
         id="path52"
         style="fill:none;stroke:#ff0000;stroke-width:0.28346457;stroke-linecap:round;stroke-linejoin:round;stroke-miterlimit:4;stroke-dasharray:none;stroke-opacity:1"
         d="m -253.508,-401.285 0.602,0.722 0.359,0.84 0.121,0.961 -0.121,0.84 -0.359,0.84 -0.602,0.719 -0.719,0.601 -0.839,0.36 -0.84,0.117 -0.961,-0.117 -0.84,-0.36 -0.719,-0.601 -0.601,-0.719 -0.239,-0.84 -0.121,-0.84 0.121,-0.961 0.239,-0.84 0.601,-0.722 0.719,-0.477 0.84,-0.363 0.961,-0.117 0.84,0.117 0.839,0.363 0.719,0.477 z" /></g><g
       transform="matrix(0,1,-1,0,0,378.0585)"
       id="g54"
       style="stroke:#ff0000;stroke-opacity:1;stroke-width:0.28346457;stroke-miterlimit:4;stroke-dasharray:none;fill:none"><path
         inkscape:connector-curvature="0"
         id="path56"
         style="fill:none;stroke:#ff0000;stroke-width:0.28346457;stroke-linecap:round;stroke-linejoin:round;stroke-miterlimit:4;stroke-dasharray:none;stroke-opacity:1"
         d="m -371.586,-394.445 -0.602,-4.317 0.602,-4.441 1.68,-4.082 2.761,-3.477 3.477,-2.761 4.082,-1.68 4.441,-0.602 4.438,0.602 4.082,1.68 3.48,2.761 75.118,0 3.601,-2.761 4.078,-1.68 4.442,-0.602 4.32,0.602 4.199,1.68 3.481,2.761 2.64,3.477 1.801,4.082 0.481,4.441 -0.481,4.317 -1.801,4.203 -2.64,3.48 -3.481,2.758 -4.199,1.68 -4.32,0.601 -4.442,-0.601 -4.078,-1.68 -3.601,-2.758 -75.118,0 -3.48,2.758 -4.082,1.68 -4.438,0.601 -4.441,-0.601 -4.082,-1.68 -3.477,-2.758 -2.761,-3.48 -1.68,-4.203 z" /></g><g
       transform="matrix(0,1,-1,0,0,378.0585)"
       id="g58"
       style="stroke:#ff0000;stroke-opacity:1;stroke-width:0.28346457;stroke-miterlimit:4;stroke-dasharray:none;fill:none"><path
         inkscape:connector-curvature="0"
         id="path60"
         style="fill:none;stroke:#ff0000;stroke-width:0.28346457;stroke-linecap:round;stroke-linejoin:round;stroke-miterlimit:4;stroke-dasharray:none;stroke-opacity:1"
         d="m -194.594,-397.813 -0.719,0.485 -0.839,0.359 -0.961,0.121 -0.84,-0.121 -0.84,-0.359 -0.719,-0.485 -0.601,-0.718 -0.36,-0.836 -0.121,-0.961 0.121,-0.84 0.36,-0.84 0.601,-0.726 0.719,-0.594 0.84,-0.363 0.84,-0.122 0.961,0.122 0.839,0.363 0.719,0.594 0.602,0.726 0.238,0.84 0.121,0.84 -0.121,0.961 -0.238,0.836 -0.602,0.718 z" /></g><g
       transform="matrix(0,1,-1,0,0,378.0585)"
       id="g62"
       style="stroke:#ff0000;stroke-opacity:1;stroke-width:0.28346457;stroke-miterlimit:4;stroke-dasharray:none;fill:none"><path
         inkscape:connector-curvature="0"
         id="path64"
         style="fill:none;stroke:#ff0000;stroke-width:0.28346457;stroke-linecap:round;stroke-linejoin:round;stroke-miterlimit:4;stroke-dasharray:none;stroke-opacity:1"
         d="m -69.551,-396.848 -0.84,-0.121 -0.843,-0.359 -0.719,-0.485 -0.598,-0.718 -0.363,-0.836 -0.117,-0.961 0.117,-0.84 0.363,-0.84 0.598,-0.726 0.719,-0.594 0.843,-0.363 0.84,-0.122 0.957,0.122 0.84,0.363 0.723,0.594 0.597,0.726 0.243,0.84 0.117,0.84 -0.117,0.961 -0.243,0.836 -0.597,0.718 -0.723,0.485 -0.84,0.359 -0.957,0.121 z" /></g><g
       transform="matrix(0,1,-1,0,0,378.0585)"
       id="g66"
       style="stroke:#ff0000;stroke-opacity:1;stroke-width:0.28346457;stroke-miterlimit:4;stroke-dasharray:none;fill:none"><path
         inkscape:connector-curvature="0"
         id="path68"
         style="fill:none;stroke:#ff0000;stroke-width:0.28346457;stroke-linecap:round;stroke-linejoin:round;stroke-miterlimit:4;stroke-dasharray:none;stroke-opacity:1"
         d="m -178,-439.508 0.84,0.598 0.722,0.961 0.36,0.961 0.238,1.078 -0.238,1.086 -0.36,1.078 -0.722,0.836 -0.84,0.605 -0.957,0.481 -1.082,0.117 -1.199,-0.117 -0.961,-0.481 -0.84,-0.605 -0.719,-0.836 -0.359,-1.078 -0.242,-1.086 0.242,-1.078 0.359,-0.961 0.719,-0.961 0.84,-0.598 0.961,-0.48 1.199,-0.121 1.082,0.121 0.957,0.48 z" /></g><g
       transform="matrix(0,1,-1,0,0,378.0585)"
       id="g70"
       style="stroke:#ff0000;stroke-opacity:1;stroke-width:0.28346457;stroke-miterlimit:4;stroke-dasharray:none;fill:none"><path
         inkscape:connector-curvature="0"
         id="path72"
         style="fill:none;stroke:#ff0000;stroke-width:0.28346457;stroke-linecap:round;stroke-linejoin:round;stroke-miterlimit:4;stroke-dasharray:none;stroke-opacity:1"
         d="m -54.637,-432.305 -0.84,-0.605 -0.722,-0.836 -0.36,-1.078 -0.238,-1.086 0.238,-1.078 0.36,-0.961 0.722,-0.961 0.84,-0.598 0.957,-0.48 1.203,-0.121 1.079,0.121 0.96,0.48 0.84,0.598 0.719,0.961 0.359,0.961 0.243,1.078 -0.243,1.086 -0.359,1.078 -0.719,0.836 -0.84,0.605 -0.96,0.481 -1.079,0.117 -1.203,-0.117 -0.957,-0.481 z" /></g><g
       transform="matrix(0,1,-1,0,0,378.0585)"
       id="g74"
       style="stroke:#ff0000;stroke-opacity:1;stroke-width:0.28346457;stroke-miterlimit:4;stroke-dasharray:none;fill:none"><path
         inkscape:connector-curvature="0"
         id="path76"
         style="fill:none;stroke:#ff0000;stroke-width:0.28346457;stroke-linecap:round;stroke-linejoin:round;stroke-miterlimit:4;stroke-dasharray:none;stroke-opacity:1"
         d="m -194.797,-444.426 2.637,-3.484 3.601,-2.754 4.082,-1.684 4.438,-0.601 4.32,0.601 4.082,1.684 3.598,2.754 103.441,0 3.598,-2.754 4.082,-1.684 4.441,-0.601 4.317,0.601 4.082,1.684 3.601,2.754 2.637,3.484 1.68,4.078 0.601,4.438 -0.601,4.445 2.64,3 1.922,-0.84 5.399,-0.726 5.281,0.726 5.039,2.039 4.32,3.356 3.36,4.324 2.039,5.039 0.722,5.281 -0.722,5.399 -11.039,-2.879 0.359,-2.52 -0.359,-2.398 -0.961,-2.285 -1.438,-1.918 -1.922,-1.438 -2.277,-0.961 -2.402,-0.359 -2.52,0.359 -2.16,0.961 -2.039,1.438 -1.441,1.918 -0.957,2.285 -0.243,2.398 0.243,2.52 0.957,2.16 1.441,2.039 2.039,1.438 2.16,0.961 2.52,0.238 2.402,-0.238 2.879,11.039 -5.281,0.722 -5.399,-0.722 -5.039,-2.157 -4.32,-3.242 -3.242,-4.316 -2.16,-5.043 -0.719,-5.399 0.719,-5.281 0.839,-1.918 -2.64,-3 -4.317,0.598 -4.441,-0.598 -4.082,-1.683 -3.598,-2.762 -103.441,0 -3.598,2.762 -4.082,1.683 -4.32,0.598 -4.438,-0.598 -4.082,-1.683 -3.601,-2.762 -2.637,-3.477 -1.68,-4.078 -0.601,-4.445 0.601,-4.438 1.68,-4.078 z" /></g><g
       transform="matrix(0,1,-1,0,0,378.0585)"
       id="g78"
       style="stroke:#ff0000;stroke-opacity:1;stroke-width:0.28346457;stroke-miterlimit:4;stroke-dasharray:none;fill:none"><path
         inkscape:connector-curvature="0"
         id="path80"
         style="fill:none;stroke:#ff0000;stroke-width:0.28346457;stroke-linecap:round;stroke-linejoin:round;stroke-miterlimit:4;stroke-dasharray:none;stroke-opacity:1"
         d="m -209.113,-388.328 -2.641,-3.485 -1.797,-4.078 -0.48,-4.437 0.48,-4.445 1.797,-4.075 2.641,-3.48 3.48,-2.762 4.199,-1.683 4.321,-0.594 4.441,0.594 4.078,1.683 3.481,2.762 103.562,0 3.477,-2.762 4.203,-1.683 4.32,-0.594 4.438,0.594 4.082,1.683 3.48,2.762 2.758,3.48 1.68,4.075 0.601,4.445 -0.601,4.437 -1.68,4.078 -2.758,3.485 -3.48,2.754 -4.082,1.683 -4.438,0.602 -4.32,-0.602 -4.203,-1.683 -3.477,-2.754 -103.562,0 -3.481,2.754 -4.078,1.683 -4.441,0.602 -4.321,-0.602 -4.199,-1.683 -3.48,-2.754 z" /></g></g></svg>