<?xml version="1.0" encoding="UTF-8" standalone="no"?>
<!-- Created with Inkscape (http://www.inkscape.org/) -->

<svg
   xmlns:dc="http://purl.org/dc/elements/1.1/"
   xmlns:cc="http://creativecommons.org/ns#"
   xmlns:rdf="http://www.w3.org/1999/02/22-rdf-syntax-ns#"
   xmlns:svg="http://www.w3.org/2000/svg"
   xmlns="http://www.w3.org/2000/svg"
   xmlns:sodipodi="http://sodipodi.sourceforge.net/DTD/sodipodi-0.dtd"
   xmlns:inkscape="http://www.inkscape.org/namespaces/inkscape"
   id="svg2"
   version="1.1"
   inkscape:version="0.91 r"
   xml:space="preserve"
   width="161.20747mm"
   height="133.37064mm"
   viewBox="0 0 571.20758 472.57312"
   sodipodi:docname="plotclock_beta1_3mm_75x300.svg"><metadata
     id="metadata8"><rdf:RDF><cc:Work
         rdf:about=""><dc:format>image/svg+xml</dc:format><dc:type
           rdf:resource="http://purl.org/dc/dcmitype/StillImage" /><dc:title /></cc:Work></rdf:RDF></metadata><defs
     id="defs6" /><sodipodi:namedview
     pagecolor="#ffffff"
     bordercolor="#666666"
     borderopacity="1"
     objecttolerance="10"
     gridtolerance="10"
     guidetolerance="10"
     inkscape:pageopacity="0"
     inkscape:pageshadow="2"
     inkscape:window-width="1600"
     inkscape:window-height="848"
     id="namedview4"
     showgrid="false"
     inkscape:zoom="3.8032596"
     inkscape:cx="922.49952"
     inkscape:cy="350.15636"
     inkscape:window-x="0"
     inkscape:window-y="0"
     inkscape:window-maximized="1"
     inkscape:current-layer="g4400"
     inkscape:document-units="mm"
     units="mm"
     inkscape:snap-bbox="true"
     inkscape:object-nodes="true"
     showguides="true"
     inkscape:guide-bbox="true"><inkscape:grid
       type="xygrid"
       id="grid4261"
       dotted="true" /><sodipodi:guide
       position="-17.716535,460.62992"
       orientation="0,1"
       id="guide4406" /><sodipodi:guide
       position="620.07874,265.74803"
       orientation="0,1"
       id="guide4408" /></sodipodi:namedview><g
     id="g10"
     inkscape:groupmode="layer"
     inkscape:label="plotclock_beta1 3mm"
     transform="matrix(1.25,0,0,-1.25,0,472.57313)"><g
       id="g5757"><g
         transform="matrix(0,-1,1,0,645.03916,591.3368)"
         id="g4400"><path
           inkscape:connector-curvature="0"
           style="fill:none;stroke:#ff0000;stroke-width:0.28346458;stroke-linecap:round;stroke-linejoin:round;stroke-miterlimit:4;stroke-dasharray:none;stroke-opacity:1"
           d="m 352.137,19.9215 0.722,-0.48 0.84,-0.36 0.961,-0.121 0.84,0.121 0.957,0.36 0.723,0.48 0.48,0.719 0.36,0.961 0.117,0.84 -0.117,0.957 -0.36,0.84 -0.48,0.722 -0.723,0.598 -0.957,0.363 -0.84,0.117 -0.961,-0.117 -0.84,-0.363 -0.722,-0.598 -0.598,-0.722 -0.359,-0.84 -0.121,-0.957 0.121,-0.84 0.359,-0.961 0.598,-0.719 z"
           id="path4398" /><path
           inkscape:connector-curvature="0"
           style="fill:none;stroke:#ff0000;stroke-width:0.28346458;stroke-linecap:round;stroke-linejoin:round;stroke-miterlimit:4;stroke-dasharray:none;stroke-opacity:1"
           d="m 367.379,124.5585 -34.76764,0 c -1.09021,-0.14419 -1.96623,0.18284 -2.07236,2.20361 l 0,62.95639 36.84,0 0,72.242 -19.801,0 0,-8.519 -9.961,0 0,-11.281 3.602,0 0,-7.68 -3.602,0 0,-15.84 -8.519,0 0,15.84 -3.481,0 0,7.68 3.481,0 0,11.281 -9.84,0 0,8.519 -17.039,0 0,-144.48 -8.52,0 0,-8.52 8.52,0 0,-11.338579 c 16.75712,-0.29441 46.13942,0 46.199,-27.064393 l 0,-57.956028 18.961,0 z"
           id="path4396"
           sodipodi:nodetypes="cccccccccccccccccccccccccccccccc" /><path
           inkscape:connector-curvature="0"
           style="fill:none;stroke:#ff0000;stroke-width:0.28346458;stroke-linecap:round;stroke-linejoin:round;stroke-miterlimit:4;stroke-dasharray:none;stroke-opacity:1"
           d="m 349.379,194.9995 -0.719,-0.718 -0.601,-0.243 -0.481,-0.117 -0.601,0.117 -0.477,0.243 -0.48,0.359 -0.36,0.359 -0.121,0.481 -0.121,0.601 0.121,0.598 0.121,0.481 0.36,0.48 0.48,0.238 0.477,0.242 0.601,0.118 0.481,-0.118 0.601,-0.242 0.36,-0.238 0.359,-0.48 0.238,-0.481 0,-1.199 -0.238,-0.481 z"
           id="path4394" /><path
           inkscape:connector-curvature="0"
           style="fill:none;stroke:#ff0000;stroke-width:0.28346458;stroke-linecap:round;stroke-linejoin:round;stroke-miterlimit:4;stroke-dasharray:none;stroke-opacity:1"
           d="m 348.66,119.9995 0.36,-0.359 0.359,-0.48 0.238,-0.481 0,-1.078 -0.238,-0.481 -0.359,-0.48 -0.36,-0.359 -0.601,-0.243 -1.082,0 -0.477,0.243 -0.48,0.359 -0.36,0.48 -0.242,0.961 0.121,0.598 0.121,0.481 0.36,0.48 0.48,0.359 0.477,0.239 1.082,0 0.601,-0.239 z"
           id="path16" /></g><path
         inkscape:connector-curvature="0"
         id="path4276"
         d="m 559.88113,215.45203 -103.441,0 0,144.601 8.52,0 0,8.52 180,0 0,-8.52 8.402,0 0,8.52 44.039,0 0,-56.762 -42.598,0 0,-96.359 -86.402,0 0,8.519 -8.52,0 0,-8.519 z"
         style="fill:none;stroke:#ff0000;stroke-width:0.28346458;stroke-linecap:round;stroke-linejoin:round;stroke-miterlimit:4;stroke-dasharray:none;stroke-opacity:1" /><g
         transform="matrix(1,0,0,-1,723.07808,372.94544)"
         id="g4278"><path
           inkscape:connector-curvature="0"
           style="fill:none;stroke:#ff0000;stroke-width:0.28346458;stroke-linecap:round;stroke-linejoin:round;stroke-miterlimit:4;stroke-dasharray:none;stroke-opacity:1"
           d="m 257.699,92.2815 14.278,0 0,8.519 -14.278,0 0,-8.519 z"
           id="path4274" /><path
           inkscape:connector-curvature="0"
           style="fill:none;stroke:#ff0000;stroke-width:0.28346458;stroke-linecap:round;stroke-linejoin:round;stroke-miterlimit:4;stroke-dasharray:none;stroke-opacity:1"
           d="m 115.5,40.5585 -0.723,0.84 -0.839,0.722 -1.079,0.36 -1.082,0.238 -1.078,-0.238 -1.082,-0.36 -0.84,-0.722 -0.718,-0.84 -0.36,-1.078 -0.242,-1.082 0.242,-1.078 0.36,-1.082 0.718,-0.84 0.84,-0.719 1.082,-0.359 1.078,-0.121 1.082,0.121 1.079,0.359 0.839,0.719 0.723,0.84 0.359,1.082 0.118,1.078 -0.118,1.082 -0.359,1.078 z"
           id="path4272" /><path
           inkscape:connector-curvature="0"
           style="fill:none;stroke:#ff0000;stroke-width:0.28346458;stroke-linecap:round;stroke-linejoin:round;stroke-miterlimit:4;stroke-dasharray:none;stroke-opacity:1"
           d="m 4.02,4.4415 103.437,0 0,19.797 8.52,0 0,-19.797 163.082,0 0,100.558 -34.082,0 0,-35.398 -43.918,0 0,8.519 -8.52,0 0,-8.519 -76.562,0 0,-17.043 -8.52,0 0,17.043 -94.918,0 0,8.519 -8.519,0 0,-73.679 z"
           id="path4270" /></g><g
         transform="translate(439.64453,130.25253)"
         id="g4283"><path
           inkscape:connector-curvature="0"
           style="fill:none;stroke:#ff0000;stroke-width:0.28346458;stroke-linecap:round;stroke-linejoin:round;stroke-miterlimit:4;stroke-dasharray:none;stroke-opacity:1"
           d="m 273.66,148.1995 -0.722,0.48 -0.84,0.359 -0.961,0.122 -0.84,-0.122 -0.84,-0.359 -0.719,-0.48 -0.601,-0.719 -0.36,-0.84 -0.117,-0.961 0.117,-0.961 0.36,-0.84 0.601,-0.718 0.719,-0.602 0.84,-0.359 0.84,-0.118 0.961,0.118 0.84,0.359 0.722,0.602 0.598,0.718 0.359,0.84 0.121,0.961 -0.121,0.961 -0.359,0.84 -0.598,0.719 z"
           id="path4268" /><path
           inkscape:connector-curvature="0"
           style="fill:none;stroke:#ff0000;stroke-width:0.28346458;stroke-linecap:round;stroke-linejoin:round;stroke-miterlimit:4;stroke-dasharray:none;stroke-opacity:1"
           d="m 267.777,224.1605 0.36,-0.84 0.601,-0.84 0.719,-0.481 0.84,-0.359 0.84,-0.121 0.961,0.121 0.84,0.359 0.722,0.481 0.598,0.84 0.359,0.84 0.121,0.839 -0.121,0.961 -0.359,0.84 -0.598,0.719 -0.722,0.601 -0.84,0.36 -0.961,0.121 -0.84,-0.121 -0.84,-0.36 -0.719,-0.601 -0.601,-0.719 -0.36,-0.84 -0.117,-0.961 0.117,-0.839 z"
           id="path4266" /><path
           inkscape:connector-curvature="0"
           style="fill:none;stroke:#ff0000;stroke-width:0.28346458;stroke-linecap:round;stroke-linejoin:round;stroke-miterlimit:4;stroke-dasharray:none;stroke-opacity:1"
           d="m 263.219,140.9995 -0.961,2.282 -0.36,2.398 0,79.32 0.36,2.399 0.961,2.281 1.441,1.922 1.918,1.437 2.281,0.961 2.278,0.239 2.402,-0.239 2.281,-0.961 1.918,-1.437 1.442,-1.922 0.957,-2.281 0.363,-2.399 0,-79.32 -0.363,-2.398 -0.957,-2.282 -1.442,-1.918 -1.918,-1.441 -2.281,-0.961 -2.402,-0.238 -2.278,0.238 -2.281,0.961 -1.918,1.441 -1.441,1.918 z"
           id="path20" /></g><g
         transform="translate(-11.338583,0)"
         id="g4347"><path
           inkscape:connector-curvature="0"
           style="fill:none;stroke:#ff0000;stroke-width:0.28346458;stroke-linecap:round;stroke-linejoin:round;stroke-miterlimit:4;stroke-dasharray:none;stroke-opacity:1"
           d="m 285.18,286.1995 0.48,-0.239 0.36,-0.48 0.117,-0.481 0.121,-0.601 -0.121,-0.598 -0.117,-0.48 -0.36,-0.481 -0.48,-0.238 -0.481,-0.242 -0.601,-0.121 -0.481,0.121 -0.597,0.242 -0.36,0.238 -0.363,0.481 -0.238,0.48 -0.121,0.598 0.121,0.601 0.238,0.481 0.363,0.48 0.36,0.239 0.597,0.242 0.481,0.117 0.601,-0.117 0.481,-0.242 z"
           id="path4345" /><path
           inkscape:connector-curvature="0"
           style="fill:none;stroke:#ff0000;stroke-width:0.28346458;stroke-linecap:round;stroke-linejoin:round;stroke-miterlimit:4;stroke-dasharray:none;stroke-opacity:1"
           d="m 282.66,363.8395 -0.363,-0.48 -0.238,-0.481 -0.121,-0.48 0.121,-0.598 0.238,-0.48 0.363,-0.481 0.36,-0.359 0.597,-0.242 1.082,0 0.481,0.242 0.48,0.359 0.36,0.481 0.117,0.48 0.121,0.598 -0.121,0.48 -0.117,0.481 -0.36,0.48 -0.48,0.36 -0.481,0.242 -1.082,0 -0.597,-0.242 -0.36,-0.36 z"
           id="path4343" /><path
           inkscape:connector-curvature="0"
           style="fill:none;stroke:#ff0000;stroke-width:0.28346458;stroke-linecap:round;stroke-linejoin:round;stroke-miterlimit:4;stroke-dasharray:none;stroke-opacity:1"
           d="m 258.66,274.4415 0,-0.723 42.477,0 0,17.043 -34.078,0 0,65.16 34.078,0 0,15.598 -42.477,0 0,-97.078 -0.363,-0.723 0.363,0.723 z"
           id="path4341" /></g><g
         transform="translate(-11.338583,0)"
         id="g4352"><path
           inkscape:connector-curvature="0"
           style="fill:none;stroke:#ff0000;stroke-width:0.28346458;stroke-linecap:round;stroke-linejoin:round;stroke-miterlimit:4;stroke-dasharray:none;stroke-opacity:1"
           d="m 316.617,359.9995 -1.199,-0.121 -0.961,-0.359 -0.84,-0.719 -0.719,-0.84 -0.48,-1.082 -0.121,-1.078 0.121,-1.082 0.48,-1.078 0.719,-0.84 0.84,-0.719 0.961,-0.363 1.199,-0.117 1.082,0.117 0.961,0.363 0.957,0.719 0.602,0.84 0.48,1.078 0.121,1.082 -0.121,1.078 -0.48,1.082 -0.602,0.84 -0.957,0.719 -0.961,0.359 -1.082,0.121 z"
           id="path4339" /><path
           inkscape:connector-curvature="0"
           style="fill:none;stroke:#ff0000;stroke-width:0.28346458;stroke-linecap:round;stroke-linejoin:round;stroke-miterlimit:4;stroke-dasharray:none;stroke-opacity:1"
           d="m 359.82,304.0815 0.477,0.957 0.121,1.2 -0.121,1.082 -0.477,0.961 -0.601,0.957 -0.961,0.601 -0.961,0.481 -1.078,0.121 -1.082,-0.121 -1.078,-0.481 -0.84,-0.601 -0.719,-0.957 -0.363,-0.961 -0.239,-1.082 0.239,-1.2 0.363,-0.957 0.719,-0.843 0.84,-0.719 1.078,-0.481 1.082,-0.117 1.078,0.117 0.961,0.481 0.961,0.719 0.601,0.843 z"
           id="path4337" /><path
           inkscape:connector-curvature="0"
           style="fill:none;stroke:#ff0000;stroke-width:0.28346458;stroke-linecap:round;stroke-linejoin:round;stroke-miterlimit:4;stroke-dasharray:none;stroke-opacity:1"
           d="m 358.738,296.6405 2.399,0.961 2.043,1.559 1.558,2.039 1.082,2.402 0.239,2.637 -4.922,41.043 -36,0 0,8.519 -0.36,2.16 -0.839,2.039 -1.321,1.801 -1.797,1.32 -2.043,0.84 -2.16,0.36 -2.277,-0.36 -2.043,-0.84 -1.68,-1.32 -1.437,-1.801 -0.84,-2.039 -0.242,-2.16 0,-8.519 -29.879,0 0,-11.282 17.039,0 0,-9.961 11.281,0 0,3.481 7.68,0 0,-3.481 7.441,0 0,-8.519 -7.441,0 0,-3.481 -7.68,0 0,3.481 -11.281,0 0,-9.961 -17.039,0 0,-11.277 78,0 2.519,0.359 z"
           id="path24" /></g><g
         transform="translate(646.23087,-91.881752)"
         id="g4317"><path
           inkscape:connector-curvature="0"
           style="fill:none;stroke:#ff0000;stroke-width:0.28346458;stroke-linecap:round;stroke-linejoin:round;stroke-miterlimit:4;stroke-dasharray:none;stroke-opacity:1"
           d="m 113.219,276.9605 -0.602,-0.84 -0.957,-0.722 -0.961,-0.36 -1.082,-0.238 -1.199,0.238 -0.961,0.36 -0.84,0.722 -0.719,0.84 -0.48,1.078 -0.121,1.082 0.121,1.079 0.48,1.082 0.719,0.839 0.84,0.719 0.961,0.36 1.199,0.121 1.082,-0.121 0.961,-0.36 0.957,-0.719 0.602,-0.839 0.48,-1.082 0.121,-1.079 -0.121,-1.082 -0.48,-1.078 z"
           id="path4315" /><path
           inkscape:connector-curvature="0"
           style="fill:none;stroke:#ff0000;stroke-width:0.28346458;stroke-linecap:round;stroke-linejoin:round;stroke-miterlimit:4;stroke-dasharray:none;stroke-opacity:1"
           d="m 121.5,277.5585 -0.242,0.48 -0.238,0.481 -0.122,0.601 0.122,0.481 0.238,0.598 0.242,0.359 0.477,0.363 0.48,0.239 0.602,0.121 0.48,-0.121 0.598,-0.239 0.722,-0.722 0.239,-0.598 0.121,-0.481 -0.121,-0.601 -0.239,-0.481 -0.359,-0.48 -0.363,-0.359 -0.598,-0.118 -0.48,-0.121 -0.602,0.121 -0.48,0.118 -0.477,0.359 z"
           id="path4313" /><path
           inkscape:connector-curvature="0"
           style="fill:none;stroke:#ff0000;stroke-width:0.28346458;stroke-linecap:round;stroke-linejoin:round;stroke-miterlimit:4;stroke-dasharray:none;stroke-opacity:1"
           d="m 203.098,278.5195 -0.239,-0.481 -0.359,-0.48 -0.48,-0.359 -0.481,-0.118 -0.601,-0.121 -0.481,0.121 -0.48,0.118 -0.477,0.359 -0.363,0.48 -0.239,0.481 0,1.082 0.239,0.598 0.363,0.359 0.477,0.363 0.48,0.239 0.481,0.121 0.601,-0.121 0.481,-0.239 0.48,-0.363 0.359,-0.359 0.239,-0.598 0,-1.082 z"
           id="path4311" /><path
           inkscape:connector-curvature="0"
           style="fill:none;stroke:#ff0000;stroke-width:0.28346458;stroke-linecap:round;stroke-linejoin:round;stroke-miterlimit:4;stroke-dasharray:none;stroke-opacity:1"
           d="m 96.18,277.0815 -0.481,0.36 -0.359,0.48 -0.121,0.477 -0.121,0.48 0.121,0.602 0.121,0.48 0.359,0.481 0.481,0.359 0.48,0.238 1.078,0 0.481,-0.238 0.48,-0.359 0.36,-0.481 0.238,-0.48 0,-1.082 -0.238,-0.477 -0.36,-0.48 -0.48,-0.36 -0.481,-0.242 -1.078,0 -0.48,0.242 z"
           id="path4309" /><path
           inkscape:connector-curvature="0"
           style="fill:none;stroke:#ff0000;stroke-width:0.28346458;stroke-linecap:round;stroke-linejoin:round;stroke-miterlimit:4;stroke-dasharray:none;stroke-opacity:1"
           d="m 19.258,281.0385 0.601,0 0.481,-0.238 0.48,-0.359 0.477,-0.961 0.121,-0.602 -0.121,-0.48 -0.238,-0.477 -0.239,-0.48 -0.48,-0.36 -0.481,-0.242 -1.199,0 -0.48,0.242 -0.481,0.36 -0.242,0.48 -0.238,0.477 -0.121,0.48 0.121,0.602 0.238,0.48 0.242,0.481 0.481,0.359 0.48,0.238 0.598,0 z"
           id="path4307" /><path
           inkscape:connector-curvature="0"
           style="fill:none;stroke:#ff0000;stroke-width:0.28346458;stroke-linecap:round;stroke-linejoin:round;stroke-miterlimit:4;stroke-dasharray:none;stroke-opacity:1"
           d="m 129.418,262.0815 0,34.079 65.16,0 0,-34.079 -65.16,0 z"
           id="path4305" /><path
           inkscape:connector-curvature="0"
           style="fill:none;stroke:#ff0000;stroke-width:0.28346458;stroke-linecap:round;stroke-linejoin:round;stroke-miterlimit:4;stroke-dasharray:none;stroke-opacity:1"
           d="m 90.777,261.9605 0,33.961 -65.16,0 0,-33.961 65.16,0 z"
           id="path4303" /><path
           inkscape:connector-curvature="0"
           style="fill:none;stroke:#ff0000;stroke-width:0.28346458;stroke-linecap:round;stroke-linejoin:round;stroke-miterlimit:4;stroke-dasharray:none;stroke-opacity:1"
           d="m 105.297,304.4415 -96.719,0 0,-51 96.719,0 0,11.519 8.523,0 0,-11.519 97.797,0 0,51 -97.797,0 0,-11.16 -8.523,0 0,11.16 z"
           id="path4301" /></g><g
         transform="translate(862.68153,-158.00275)"
         id="g4327"><path
           inkscape:connector-curvature="0"
           style="fill:none;stroke:#ff0000;stroke-width:0.28346458;stroke-linecap:round;stroke-linejoin:round;stroke-miterlimit:4;stroke-dasharray:none;stroke-opacity:1"
           d="m 108.059,342.9605 -1.2,0 -0.48,0.239 -0.481,0.359 -0.238,0.363 -0.242,0.598 -0.121,0.48 0.121,0.602 0.242,0.48 0.238,0.477 0.481,0.363 0.48,0.117 0.598,0.122 0.602,-0.122 0.48,-0.117 0.481,-0.363 0.238,-0.477 0.242,-0.48 0.117,-0.602 -0.117,-0.48 -0.242,-0.598 -0.238,-0.363 -0.481,-0.359 -0.48,-0.239 z"
           id="path4299" /><path
           inkscape:connector-curvature="0"
           style="fill:none;stroke:#ff0000;stroke-width:0.28346458;stroke-linecap:round;stroke-linejoin:round;stroke-miterlimit:4;stroke-dasharray:none;stroke-opacity:1"
           d="m 28.02,346.5585 0.48,0.363 0.477,0.117 0.48,0.122 0.602,-0.122 0.48,-0.117 0.481,-0.363 0.359,-0.477 0.121,-0.48 0.117,-0.602 -0.117,-0.48 -0.121,-0.598 -0.359,-0.363 -0.481,-0.359 -0.48,-0.239 -1.082,0 -0.477,0.239 -0.48,0.359 -0.36,0.363 -0.242,0.598 0,1.082 0.242,0.48 0.36,0.477 z"
           id="path4297" /><path
           inkscape:connector-curvature="0"
           style="fill:none;stroke:#ff0000;stroke-width:0.28346458;stroke-linecap:round;stroke-linejoin:round;stroke-miterlimit:4;stroke-dasharray:none;stroke-opacity:1"
           d="m 19.617,347.0385 -0.719,0.84 -0.839,0.723 -0.961,0.359 -1.078,0.121 -1.082,-0.121 -0.961,-0.359 -0.84,-0.723 -0.598,-0.84 -0.48,-0.957 -0.121,-1.082 0.121,-1.078 0.48,-0.961 0.598,-0.84 0.84,-0.601 0.961,-0.481 1.082,-0.117 1.078,0.117 0.961,0.481 0.839,0.601 0.719,0.84 0.36,0.961 0.121,1.078 -0.121,1.082 -0.36,0.957 z"
           id="path4295" /><path
           inkscape:connector-curvature="0"
           style="fill:none;stroke:#ff0000;stroke-width:0.28346458;stroke-linecap:round;stroke-linejoin:round;stroke-miterlimit:4;stroke-dasharray:none;stroke-opacity:1"
           d="m 101.098,328.0815 0,33.957 -65.16,0 0,-33.957 65.16,0 z"
           id="path4293" /><path
           inkscape:connector-curvature="0"
           style="fill:none;stroke:#ff0000;stroke-width:0.28346458;stroke-linecap:round;stroke-linejoin:round;stroke-miterlimit:4;stroke-dasharray:none;stroke-opacity:1"
           d="m 20.34,359.1605 0,11.398 97.797,0 0,-51 -97.797,0 0,11.281 -8.52,0 0,28.321 8.52,0 z"
           id="path4291" /></g><path
         sodipodi:nodetypes="ccccccccccccccccccccccccccccccccccccccccccccccccccc"
         inkscape:connector-curvature="0"
         id="path28"
         d="m 174.66,364.8005 5.637,0.719 5.523,-0.719 5.157,-2.16 4.562,-3.48 28.20226,-6.38048 c 2.18039,-0.12583 2.76734,-1.24757 2.75874,-2.74152 l 0,-11.80535 c 0.0633,-1.86427 -0.95513,-2.95586 -2.81594,-3.44575 l -28.14506,-6.1079 -4.562,-3.359 -5.157,-2.16 -5.523,-0.719 -5.637,0.719 -5.16,2.16 -8.523,-0.602 -1.68,-2.277 5.883,-4.563 7.32,-3 7.797,-1.078 7.801,1.078 7.199,3 6,4.563 25.203,3.597 0,-10.437 1.438,0 0,-8.52 -1.918,0 1.918,-5.043 5.64,0 0,36 c -0.0531,1.62046 2.99227,2.11899 2.879,0 l 0,-36 5.641,0 2.039,5.043 -2.039,0 0,8.52 1.441,0 0,27.238 0,1.199 0,13.563 -42.242,7.918 -6,4.562 -7.199,3 -7.801,0.957 -7.797,-0.957 -7.32,-3 -5.883,-4.562 1.68,-2.281 8.523,-0.598 z"
         style="fill:none;stroke:#ff0000;stroke-width:0.28346458;stroke-linecap:round;stroke-linejoin:round;stroke-miterlimit:4;stroke-dasharray:none;stroke-opacity:1" /><g
         transform="translate(1.5078109,226.52499)"
         id="g4373"><g
           transform="matrix(0,1,-1,0,0,378.0585)"
           id="g30"
           style="fill:none;stroke:#ff0000;stroke-width:0.28346458;stroke-miterlimit:4;stroke-dasharray:none;stroke-opacity:1"><path
             inkscape:connector-curvature="0"
             id="path32"
             style="fill:none;stroke:#ff0000;stroke-width:0.28346458;stroke-linecap:round;stroke-linejoin:round;stroke-miterlimit:4;stroke-dasharray:none;stroke-opacity:1"
             d="m -261.836,-433.871 -0.242,-1.082 0.242,-1.078 0.359,-1.082 0.719,-0.84 0.84,-0.719 0.961,-0.359 1.078,-0.121 1.203,0.121 0.957,0.359 0.84,0.719 0.723,0.84 0.359,1.082 0.238,1.078 -0.238,1.082 -0.359,0.961 -0.723,0.957 -0.84,0.601 -0.957,0.481 -1.203,0.117 -1.078,-0.117 -0.961,-0.481 -0.84,-0.601 -0.719,-0.957 -0.359,-0.961 z" /></g><path
           inkscape:connector-curvature="0"
           id="path34"
           style="fill:none;fill-opacity:1;fill-rule:nonzero;stroke:#00ff00;stroke-width:0.28346458;stroke-miterlimit:4;stroke-dasharray:none;stroke-opacity:1"
           d="m 445.965,20.605 c -0.25,-3.574 -2.129,-7.062 -5.242,-8.906 -4.258,-2.656 -10.473,-1.984 -13.75,1.938 -2.028,2.211 -3.211,5.25 -2.879,8.277 0.043,1.43 0.445,2.816 1.14,4.051 0.481,1.504 0.266,3.133 0.532,4.687 0.925,10.547 1.695,21.117 2.836,31.637 0.722,3.473 4.664,5.734 8.058,4.773 2.918,-0.722 5.008,-3.613 4.965,-6.601 0.902,-11.195 2.004,-22.371 2.973,-33.563 0.054,-1.078 0.754,-1.984 0.953,-3.047 0.269,-1.058 0.476,-2.148 0.414,-3.246 z" /><g
           transform="matrix(0,1,-1,0,0,378.0585)"
           id="g36"
           style="fill:none;stroke:#ff0000;stroke-width:0.28346458;stroke-miterlimit:4;stroke-dasharray:none;stroke-opacity:1"><path
             inkscape:connector-curvature="0"
             id="path38"
             style="fill:none;stroke:#ff0000;stroke-width:0.28346458;stroke-linecap:round;stroke-linejoin:round;stroke-miterlimit:4;stroke-dasharray:none;stroke-opacity:1"
             d="m -356.914,-428.469 -1.676,0 -1.668,-0.832 -1.398,-1.117 -1.114,-1.113 -0.554,-1.668 -0.281,-1.676 0.281,-1.668 0.554,-1.668 1.114,-1.398 1.398,-1.114 1.668,-0.554 1.676,-0.282 1.668,0.282 1.668,0.554 1.113,1.114 1.117,1.398 0.832,1.668 0,3.344 -0.832,1.668 -2.23,2.23 -1.668,0.832 -1.668,0 z" /></g><g
           transform="matrix(0,1,-1,0,0,378.0585)"
           id="g40"
           style="fill:none;stroke:#ff0000;stroke-width:0.28346458;stroke-miterlimit:4;stroke-dasharray:none;stroke-opacity:1"><path
             inkscape:connector-curvature="0"
             id="path42"
             style="fill:none;stroke:#ff0000;stroke-width:0.28346458;stroke-linecap:round;stroke-linejoin:round;stroke-miterlimit:4;stroke-dasharray:none;stroke-opacity:1"
             d="m -373.438,-439.391 1.68,-4.082 2.762,-3.48 3.476,-2.758 4.082,-1.68 4.442,-0.601 4.32,0.601 4.199,1.68 3.481,2.758 75.117,0 3.602,-2.758 4.078,-1.68 4.32,-0.601 4.441,0.601 4.079,1.68 3.601,2.758 2.641,3.48 1.679,4.082 0.602,4.438 -0.602,4.32 -1.679,4.199 -2.641,3.481 -3.601,2.762 -4.079,1.679 -4.441,0.602 -4.32,-0.602 -4.078,-1.679 -3.602,-2.762 -75.117,0 -3.481,2.762 -4.199,1.679 -4.32,0.602 -4.442,-0.602 -4.082,-1.679 -3.476,-2.762 -2.762,-3.481 -1.68,-4.199 -0.601,-4.32 0.601,-4.438 z" /></g></g><g
         transform="translate(1.5078109,226.52499)"
         id="g4382"><path
           inkscape:connector-curvature="0"
           id="path44"
           style="fill:none;fill-opacity:1;fill-rule:nonzero;stroke:#00ff00;stroke-width:0.28346458;stroke-miterlimit:4;stroke-dasharray:none;stroke-opacity:1"
           d="m 409.773,22.461 c -0.246,-3.555 -2.097,-7.031 -5.199,-8.879 -4.273,-2.699 -10.469,-2 -13.824,1.844 -1.84,2.133 -3.055,4.91 -2.871,7.769 0.019,1.406 0.203,2.828 0.91,4.059 0.781,1.597 0.504,3.457 0.77,5.172 0.945,10.535 1.699,21.09 2.816,31.609 0.648,3.227 4,5.574 7.273,5.098 3.102,-0.344 5.559,-3.16 5.735,-6.235 0.383,-5.406 0.965,-10.8 1.418,-16.207 0.554,-6.195 1.109,-12.39 1.664,-18.586 0.808,-1.746 1.375,-3.683 1.308,-5.644 z" /><g
           transform="matrix(0,1,-1,0,0,378.0585)"
           id="g46"
           style="fill:none;stroke:#ff0000;stroke-width:0.28346458;stroke-miterlimit:4;stroke-dasharray:none;stroke-opacity:1"><path
             inkscape:connector-curvature="0"
             id="path48"
             style="fill:none;stroke:#ff0000;stroke-width:0.28346458;stroke-linecap:round;stroke-linejoin:round;stroke-miterlimit:4;stroke-dasharray:none;stroke-opacity:1"
             d="m -355.141,-405.078 1.59,0.269 1.594,0.528 1.336,1.066 0.797,1.332 0.797,1.594 0.269,1.601 -0.269,1.594 -0.797,1.594 -0.797,1.336 -1.336,0.797 -1.594,0.797 -3.195,0 -1.594,-0.797 -1.332,-0.797 -1.066,-1.336 -0.528,-1.594 -0.269,-1.594 0.269,-1.601 0.528,-1.594 1.066,-1.332 1.332,-1.066 1.594,-0.528 1.605,-0.269 z" /></g><g
           transform="matrix(0,1,-1,0,0,378.0585)"
           id="g50"
           style="fill:none;stroke:#ff0000;stroke-width:0.28346458;stroke-miterlimit:4;stroke-dasharray:none;stroke-opacity:1"><path
             inkscape:connector-curvature="0"
             id="path52"
             style="fill:none;stroke:#ff0000;stroke-width:0.28346458;stroke-linecap:round;stroke-linejoin:round;stroke-miterlimit:4;stroke-dasharray:none;stroke-opacity:1"
             d="m -253.508,-401.285 0.602,0.722 0.359,0.84 0.121,0.961 -0.121,0.84 -0.359,0.84 -0.602,0.719 -0.719,0.601 -0.839,0.36 -0.84,0.117 -0.961,-0.117 -0.84,-0.36 -0.719,-0.601 -0.601,-0.719 -0.239,-0.84 -0.121,-0.84 0.121,-0.961 0.239,-0.84 0.601,-0.722 0.719,-0.477 0.84,-0.363 0.961,-0.117 0.84,0.117 0.839,0.363 0.719,0.477 z" /></g><g
           transform="matrix(0,1,-1,0,0,378.0585)"
           id="g54"
           style="fill:none;stroke:#ff0000;stroke-width:0.28346458;stroke-miterlimit:4;stroke-dasharray:none;stroke-opacity:1"><path
             inkscape:connector-curvature="0"
             id="path56"
             style="fill:none;stroke:#ff0000;stroke-width:0.28346458;stroke-linecap:round;stroke-linejoin:round;stroke-miterlimit:4;stroke-dasharray:none;stroke-opacity:1"
             d="m -371.586,-394.445 -0.602,-4.317 0.602,-4.441 1.68,-4.082 2.761,-3.477 3.477,-2.761 4.082,-1.68 4.441,-0.602 4.438,0.602 4.082,1.68 3.48,2.761 75.118,0 3.601,-2.761 4.078,-1.68 4.442,-0.602 4.32,0.602 4.199,1.68 3.481,2.761 2.64,3.477 1.801,4.082 0.481,4.441 -0.481,4.317 -1.801,4.203 -2.64,3.48 -3.481,2.758 -4.199,1.68 -4.32,0.601 -4.442,-0.601 -4.078,-1.68 -3.601,-2.758 -75.118,0 -3.48,2.758 -4.082,1.68 -4.438,0.601 -4.441,-0.601 -4.082,-1.68 -3.477,-2.758 -2.761,-3.48 -1.68,-4.203 z" /></g></g><g
         transform="matrix(0,-1,1,0,-24.943705,679.85489)"
         id="g4365"><g
           transform="matrix(0,1,-1,0,0,378.0585)"
           id="g66"
           style="fill:none;stroke:#ff0000;stroke-width:0.28346458;stroke-miterlimit:4;stroke-dasharray:none;stroke-opacity:1"><path
             inkscape:connector-curvature="0"
             id="path68"
             style="fill:none;stroke:#ff0000;stroke-width:0.28346458;stroke-linecap:round;stroke-linejoin:round;stroke-miterlimit:4;stroke-dasharray:none;stroke-opacity:1"
             d="m -178,-439.508 0.84,0.598 0.722,0.961 0.36,0.961 0.238,1.078 -0.238,1.086 -0.36,1.078 -0.722,0.836 -0.84,0.605 -0.957,0.481 -1.082,0.117 -1.199,-0.117 -0.961,-0.481 -0.84,-0.605 -0.719,-0.836 -0.359,-1.078 -0.242,-1.086 0.242,-1.078 0.359,-0.961 0.719,-0.961 0.84,-0.598 0.961,-0.48 1.199,-0.121 1.082,0.121 0.957,0.48 z" /></g><g
           transform="matrix(0,1,-1,0,0,378.0585)"
           id="g70"
           style="fill:none;stroke:#ff0000;stroke-width:0.28346458;stroke-miterlimit:4;stroke-dasharray:none;stroke-opacity:1"><path
             inkscape:connector-curvature="0"
             id="path72"
             style="fill:none;stroke:#ff0000;stroke-width:0.28346458;stroke-linecap:round;stroke-linejoin:round;stroke-miterlimit:4;stroke-dasharray:none;stroke-opacity:1"
             d="m -54.637,-432.305 -0.84,-0.605 -0.722,-0.836 -0.36,-1.078 -0.238,-1.086 0.238,-1.078 0.36,-0.961 0.722,-0.961 0.84,-0.598 0.957,-0.48 1.203,-0.121 1.079,0.121 0.96,0.48 0.84,0.598 0.719,0.961 0.359,0.961 0.243,1.078 -0.243,1.086 -0.359,1.078 -0.719,0.836 -0.84,0.605 -0.96,0.481 -1.079,0.117 -1.203,-0.117 -0.957,-0.481 z" /></g><g
           transform="matrix(0,1,-1,0,0,378.0585)"
           id="g74"
           style="fill:none;stroke:#ff0000;stroke-width:0.28346458;stroke-miterlimit:4;stroke-dasharray:none;stroke-opacity:1"><path
             inkscape:connector-curvature="0"
             id="path76"
             style="fill:none;stroke:#ff0000;stroke-width:0.28346458;stroke-linecap:round;stroke-linejoin:round;stroke-miterlimit:4;stroke-dasharray:none;stroke-opacity:1"
             d="m -194.797,-444.426 2.637,-3.484 3.601,-2.754 4.082,-1.684 4.438,-0.601 4.32,0.601 4.082,1.684 3.598,2.754 103.441,0 3.598,-2.754 4.082,-1.684 4.441,-0.601 4.317,0.601 4.082,1.684 3.601,2.754 2.637,3.484 1.68,4.078 0.601,4.438 -0.601,4.445 2.64,3 1.922,-0.84 5.399,-0.726 5.281,0.726 5.039,2.039 4.32,3.356 3.36,4.324 2.039,5.039 0.722,5.281 -0.722,5.399 -11.039,-2.879 0.359,-2.52 -0.359,-2.398 -0.961,-2.285 -1.438,-1.918 -1.922,-1.438 -2.277,-0.961 -2.402,-0.359 -2.52,0.359 -2.16,0.961 -2.039,1.438 -1.441,1.918 -0.957,2.285 -0.243,2.398 0.243,2.52 0.957,2.16 1.441,2.039 2.039,1.438 2.16,0.961 2.52,0.238 2.402,-0.238 2.879,11.039 -5.281,0.722 -5.399,-0.722 -5.039,-2.157 -4.32,-3.242 -3.242,-4.316 -2.16,-5.043 -0.719,-5.399 0.719,-5.281 0.839,-1.918 -2.64,-3 -4.317,0.598 -4.441,-0.598 -4.082,-1.683 -3.598,-2.762 -103.441,0 -3.598,2.762 -4.082,1.683 -4.32,0.598 -4.438,-0.598 -4.082,-1.683 -3.601,-2.762 -2.637,-3.477 -1.68,-4.078 -0.601,-4.445 0.601,-4.438 1.68,-4.078 z" /></g></g><g
         transform="translate(-32.94119,42.882636)"
         id="g4357"><g
           transform="matrix(0,1,-1,0,0,378.0585)"
           id="g58"
           style="fill:none;stroke:#ff0000;stroke-width:0.28346458;stroke-miterlimit:4;stroke-dasharray:none;stroke-opacity:1"><path
             inkscape:connector-curvature="0"
             id="path60"
             style="fill:none;stroke:#ff0000;stroke-width:0.28346458;stroke-linecap:round;stroke-linejoin:round;stroke-miterlimit:4;stroke-dasharray:none;stroke-opacity:1"
             d="m -194.594,-397.813 -0.719,0.485 -0.839,0.359 -0.961,0.121 -0.84,-0.121 -0.84,-0.359 -0.719,-0.485 -0.601,-0.718 -0.36,-0.836 -0.121,-0.961 0.121,-0.84 0.36,-0.84 0.601,-0.726 0.719,-0.594 0.84,-0.363 0.84,-0.122 0.961,0.122 0.839,0.363 0.719,0.594 0.602,0.726 0.238,0.84 0.121,0.84 -0.121,0.961 -0.238,0.836 -0.602,0.718 z" /></g><g
           transform="matrix(0,1,-1,0,0,378.0585)"
           id="g62"
           style="fill:none;stroke:#ff0000;stroke-width:0.28346458;stroke-miterlimit:4;stroke-dasharray:none;stroke-opacity:1"><path
             inkscape:connector-curvature="0"
             id="path64"
             style="fill:none;stroke:#ff0000;stroke-width:0.28346458;stroke-linecap:round;stroke-linejoin:round;stroke-miterlimit:4;stroke-dasharray:none;stroke-opacity:1"
             d="m -69.551,-396.848 -0.84,-0.121 -0.843,-0.359 -0.719,-0.485 -0.598,-0.718 -0.363,-0.836 -0.117,-0.961 0.117,-0.84 0.363,-0.84 0.598,-0.726 0.719,-0.594 0.843,-0.363 0.84,-0.122 0.957,0.122 0.84,0.363 0.723,0.594 0.597,0.726 0.243,0.84 0.117,0.84 -0.117,0.961 -0.243,0.836 -0.597,0.718 -0.723,0.485 -0.84,0.359 -0.957,0.121 z" /></g><g
           transform="matrix(0,1,-1,0,0,378.0585)"
           id="g78"
           style="fill:none;stroke:#ff0000;stroke-width:0.28346458;stroke-miterlimit:4;stroke-dasharray:none;stroke-opacity:1"><path
             inkscape:connector-curvature="0"
             id="path80"
             style="fill:none;stroke:#ff0000;stroke-width:0.28346458;stroke-linecap:round;stroke-linejoin:round;stroke-miterlimit:4;stroke-dasharray:none;stroke-opacity:1"
             d="m -209.113,-388.328 -2.641,-3.485 -1.797,-4.078 -0.48,-4.437 0.48,-4.445 1.797,-4.075 2.641,-3.48 3.48,-2.762 4.199,-1.683 4.321,-0.594 4.441,0.594 4.078,1.683 3.481,2.762 103.562,0 3.477,-2.762 4.203,-1.683 4.32,-0.594 4.438,0.594 4.082,1.683 3.48,2.762 2.758,3.48 1.68,4.075 0.601,4.445 -0.601,4.437 -1.68,4.078 -2.758,3.485 -3.48,2.754 -4.082,1.683 -4.438,0.602 -4.32,-0.602 -4.203,-1.683 -3.477,-2.754 -103.562,0 -3.481,2.754 -4.078,1.683 -4.441,0.602 -4.321,-0.602 -4.199,-1.683 -3.48,-2.754 z" /></g></g></g></g></svg>