solid plot4bb
facet normal 0.707106781186548 0.707106781186548 0.0
outer loop
vertex 325.513821536741 8.49663694994251 -3.5
vertex 326.785170517524 6.83978270045011 -1.5
vertex 326.785170517524 6.83978270045011 -3.5
endloop
endfacet
facet normal 0.866025403784438 0.500000000000001 0.0
outer loop
vertex 326.785170517524 6.83978270045011 -1.5
vertex 325.513821536741 8.49663694994251 -3.5
vertex 325.513821536741 8.49663694994251 -1.5
endloop
endfacet
facet normal 1.0 -1.00071764128115e-014 0.0
outer loop
vertex 327.856967287249 2.83978270045012 -3.5
vertex 327.584373897561 0.769230339629936 -1.5
vertex 327.584373897561 0.769230339629936 -3.5
endloop
endfacet
facet normal 0.96592582628907 -0.258819045102516 0.0
outer loop
vertex 327.584373897561 0.769230339629936 -1.5
vertex 327.856967287249 2.83978270045012 -3.5
vertex 327.856967287249 2.83978270045012 -1.5
endloop
endfacet
facet normal 0.96592582628907 -0.258819045102516 0.0
outer loop
vertex 327.584373897561 0.769230339629936 -3.5
vertex 326.785170517524 -1.1602172995499 -1.5
vertex 326.785170517524 -1.1602172995499 -3.5
endloop
endfacet
facet normal 0.866025403784442 -0.499999999999995 0.0
outer loop
vertex 326.785170517524 -1.1602172995499 -1.5
vertex 327.584373897561 0.769230339629936 -3.5
vertex 327.584373897561 0.769230339629936 -1.5
endloop
endfacet
facet normal -0.258819045102523 -0.965925826289068 0.0
outer loop
vertex 317.786414926428 -4.88762390986244 -1.5
vertex 315.856967287249 -4.0884205298254 -3.5
vertex 317.786414926428 -4.88762390986244 -3.5
endloop
endfacet
facet normal -0.499999999999998 -0.86602540378444 0.0
outer loop
vertex 315.856967287249 -4.0884205298254 -3.5
vertex 317.786414926428 -4.88762390986244 -1.5
vertex 315.856967287249 -4.0884205298254 -1.5
endloop
endfacet
facet normal 0.499999999999998 0.86602540378444 0.0
outer loop
vertex 323.856967287249 9.76798593072563 -1.5
vertex 325.513821536741 8.49663694994251 -3.5
vertex 323.856967287249 9.76798593072563 -3.5
endloop
endfacet
facet normal 0.707106781186548 0.707106781186548 0.0
outer loop
vertex 325.513821536741 8.49663694994251 -3.5
vertex 323.856967287249 9.76798593072563 -1.5
vertex 325.513821536741 8.49663694994251 -1.5
endloop
endfacet
facet normal -0.96592582628907 -0.258819045102516 0.0
outer loop
vertex 312.129560676936 0.769230339629959 -1.5
vertex 312.928764056973 -1.16021729954987 -3.5
vertex 312.928764056973 -1.16021729954987 -1.5
endloop
endfacet
facet normal -0.866025403784438 -0.500000000000001 0.0
outer loop
vertex 312.928764056973 -1.16021729954987 -3.5
vertex 312.129560676936 0.769230339629959 -1.5
vertex 312.129560676936 0.769230339629959 -3.5
endloop
endfacet
facet normal 0.707106781186545 -0.70710678118655 0.0
outer loop
vertex 325.513821536741 -2.81707154904228 -1.5
vertex 323.856967287249 -4.0884205298254 -3.5
vertex 325.513821536741 -2.81707154904228 -3.5
endloop
endfacet
facet normal 0.499999999999998 -0.86602540378444 0.0
outer loop
vertex 323.856967287249 -4.0884205298254 -3.5
vertex 325.513821536741 -2.81707154904228 -1.5
vertex 323.856967287249 -4.0884205298254 -1.5
endloop
endfacet
facet normal -0.707106781186545 0.70710678118655 0.0
outer loop
vertex 314.200113037756 8.49663694994251 -1.5
vertex 315.856967287249 9.76798593072563 -3.5
vertex 314.200113037756 8.49663694994251 -3.5
endloop
endfacet
facet normal -0.499999999999998 0.86602540378444 0.0
outer loop
vertex 315.856967287249 9.76798593072563 -3.5
vertex 314.200113037756 8.49663694994251 -1.5
vertex 315.856967287249 9.76798593072563 -1.5
endloop
endfacet
facet normal -0.499999999999998 0.86602540378444 0.0
outer loop
vertex 315.856967287249 9.76798593072563 -1.5
vertex 317.786414926428 10.5671893107627 -3.5
vertex 315.856967287249 9.76798593072563 -3.5
endloop
endfacet
facet normal -0.258819045102523 0.965925826289068 0.0
outer loop
vertex 317.786414926428 10.5671893107627 -3.5
vertex 315.856967287249 9.76798593072563 -1.5
vertex 317.786414926428 10.5671893107627 -1.5
endloop
endfacet
facet normal 0.866025403784442 -0.499999999999995 0.0
outer loop
vertex 326.785170517524 -1.1602172995499 -3.5
vertex 325.513821536741 -2.81707154904228 -1.5
vertex 325.513821536741 -2.81707154904228 -3.5
endloop
endfacet
facet normal 0.707106781186545 -0.70710678118655 0.0
outer loop
vertex 325.513821536741 -2.81707154904228 -1.5
vertex 326.785170517524 -1.1602172995499 -3.5
vertex 326.785170517524 -1.1602172995499 -1.5
endloop
endfacet
facet normal 0.866025403784438 0.500000000000001 0.0
outer loop
vertex 326.785170517524 6.83978270045011 -3.5
vertex 327.584373897561 4.91033506127028 -1.5
vertex 327.584373897561 4.91033506127028 -3.5
endloop
endfacet
facet normal 0.96592582628907 0.258819045102516 0.0
outer loop
vertex 327.584373897561 4.91033506127028 -1.5
vertex 326.785170517524 6.83978270045011 -3.5
vertex 326.785170517524 6.83978270045011 -1.5
endloop
endfacet
facet normal -0.96592582628907 0.258819045102514 0.0
outer loop
vertex 312.129560676936 4.91033506127028 -1.5
vertex 311.856967287249 2.83978270045012 -3.5
vertex 311.856967287249 2.83978270045012 -1.5
endloop
endfacet
facet normal -1.0 0.0 0.0
outer loop
vertex 311.856967287249 2.83978270045012 -3.5
vertex 312.129560676936 4.91033506127028 -1.5
vertex 312.129560676936 4.91033506127028 -3.5
endloop
endfacet
facet normal -0.707106781186545 0.70710678118655 0.0
outer loop
vertex 314.200113037756 8.49663694994251 -1.5
vertex 312.928764056973 6.83978270045013 -3.5
vertex 312.928764056973 6.83978270045013 -1.5
endloop
endfacet
facet normal -0.866025403784438 0.500000000000002 0.0
outer loop
vertex 312.928764056973 6.83978270045013 -3.5
vertex 314.200113037756 8.49663694994251 -1.5
vertex 314.200113037756 8.49663694994251 -3.5
endloop
endfacet
facet normal 0.96592582628907 0.258819045102516 0.0
outer loop
vertex 327.584373897561 4.91033506127028 -3.5
vertex 327.856967287249 2.83978270045012 -1.5
vertex 327.856967287249 2.83978270045012 -3.5
endloop
endfacet
facet normal 1.0 -1.00071764128115e-014 0.0
outer loop
vertex 327.856967287249 2.83978270045012 -1.5
vertex 327.584373897561 4.91033506127028 -3.5
vertex 327.584373897561 4.91033506127028 -1.5
endloop
endfacet
facet normal 0.258819045102523 -0.965925826289068 0.0
outer loop
vertex 321.927519648069 -4.88762390986244 -1.5
vertex 319.856967287249 -5.16021729954989 -3.5
vertex 321.927519648069 -4.88762390986244 -3.5
endloop
endfacet
facet normal 0.0 -1.0 0.0
outer loop
vertex 319.856967287249 -5.16021729954989 -3.5
vertex 321.927519648069 -4.88762390986244 -1.5
vertex 319.856967287249 -5.16021729954989 -1.5
endloop
endfacet
facet normal 0.0 1.0 0.0
outer loop
vertex 319.856967287249 10.8397827004501 -1.5
vertex 321.927519648069 10.5671893107627 -3.5
vertex 319.856967287249 10.8397827004501 -3.5
endloop
endfacet
facet normal 0.258819045102523 0.965925826289068 0.0
outer loop
vertex 321.927519648069 10.5671893107627 -3.5
vertex 319.856967287249 10.8397827004501 -1.5
vertex 321.927519648069 10.5671893107627 -1.5
endloop
endfacet
facet normal 0.499999999999998 -0.86602540378444 0.0
outer loop
vertex 323.856967287249 -4.0884205298254 -1.5
vertex 321.927519648069 -4.88762390986244 -3.5
vertex 323.856967287249 -4.0884205298254 -3.5
endloop
endfacet
facet normal 0.258819045102523 -0.965925826289068 0.0
outer loop
vertex 321.927519648069 -4.88762390986244 -3.5
vertex 323.856967287249 -4.0884205298254 -1.5
vertex 321.927519648069 -4.88762390986244 -1.5
endloop
endfacet
facet normal 0.0 -1.0 0.0
outer loop
vertex 319.856967287249 -5.16021729954989 -1.5
vertex 317.786414926428 -4.88762390986244 -3.5
vertex 319.856967287249 -5.16021729954989 -3.5
endloop
endfacet
facet normal -0.258819045102523 -0.965925826289068 0.0
outer loop
vertex 317.786414926428 -4.88762390986244 -3.5
vertex 319.856967287249 -5.16021729954989 -1.5
vertex 317.786414926428 -4.88762390986244 -1.5
endloop
endfacet
facet normal -0.866025403784438 -0.500000000000001 0.0
outer loop
vertex 312.928764056973 -1.16021729954987 -1.5
vertex 314.200113037756 -2.81707154904228 -3.5
vertex 314.200113037756 -2.81707154904228 -1.5
endloop
endfacet
facet normal -0.707106781186548 -0.707106781186548 0.0
outer loop
vertex 314.200113037756 -2.81707154904228 -3.5
vertex 312.928764056973 -1.16021729954987 -1.5
vertex 312.928764056973 -1.16021729954987 -3.5
endloop
endfacet
facet normal -0.499999999999998 -0.86602540378444 0.0
outer loop
vertex 315.856967287249 -4.0884205298254 -1.5
vertex 314.200113037756 -2.81707154904228 -3.5
vertex 315.856967287249 -4.0884205298254 -3.5
endloop
endfacet
facet normal -0.707106781186548 -0.707106781186548 0.0
outer loop
vertex 314.200113037756 -2.81707154904228 -3.5
vertex 315.856967287249 -4.0884205298254 -1.5
vertex 314.200113037756 -2.81707154904228 -1.5
endloop
endfacet
facet normal -1.0 0.0 0.0
outer loop
vertex 311.856967287249 2.83978270045012 -1.5
vertex 312.129560676936 0.769230339629959 -3.5
vertex 312.129560676936 0.769230339629959 -1.5
endloop
endfacet
facet normal -0.96592582628907 -0.258819045102516 0.0
outer loop
vertex 312.129560676936 0.769230339629959 -3.5
vertex 311.856967287249 2.83978270045012 -1.5
vertex 311.856967287249 2.83978270045012 -3.5
endloop
endfacet
facet normal -0.866025403784438 0.500000000000002 0.0
outer loop
vertex 312.928764056973 6.83978270045013 -1.5
vertex 312.129560676936 4.91033506127028 -3.5
vertex 312.129560676936 4.91033506127028 -1.5
endloop
endfacet
facet normal -0.96592582628907 0.258819045102514 0.0
outer loop
vertex 312.129560676936 4.91033506127028 -3.5
vertex 312.928764056973 6.83978270045013 -1.5
vertex 312.928764056973 6.83978270045013 -3.5
endloop
endfacet
facet normal 0.258819045102523 0.965925826289068 0.0
outer loop
vertex 321.927519648069 10.5671893107627 -1.5
vertex 323.856967287249 9.76798593072563 -3.5
vertex 321.927519648069 10.5671893107627 -3.5
endloop
endfacet
facet normal 0.499999999999998 0.86602540378444 0.0
outer loop
vertex 323.856967287249 9.76798593072563 -3.5
vertex 321.927519648069 10.5671893107627 -1.5
vertex 323.856967287249 9.76798593072563 -1.5
endloop
endfacet
facet normal -0.258819045102523 0.965925826289068 0.0
outer loop
vertex 317.786414926428 10.5671893107627 -1.5
vertex 319.856967287249 10.8397827004501 -3.5
vertex 317.786414926428 10.5671893107627 -3.5
endloop
endfacet
facet normal 0.0 1.0 0.0
outer loop
vertex 319.856967287249 10.8397827004501 -3.5
vertex 317.786414926428 10.5671893107627 -1.5
vertex 319.856967287249 10.8397827004501 -1.5
endloop
endfacet
facet normal 0.0 0.0 1.0
outer loop
vertex 316.026603725606 1.81343987739035 -1.5
vertex 316.026603725606 3.86612552350994 -1.5
vertex 315.891483129569 2.83978270045012 -1.5
endloop
endfacet
facet normal 0.0 0.0 1.0
outer loop
vertex 316.026603725606 3.86612552350994 -1.5
vertex 316.026603725606 1.81343987739035 -1.5
vertex 316.422757268393 0.857040621610465 -1.5
endloop
endfacet
facet normal 0.0 0.0 1.0
outer loop
vertex 316.026603725606 3.86612552350994 -1.5
vertex 316.422757268393 0.857040621610465 -1.5
vertex 316.422757268393 4.8225247792897 -1.5
endloop
endfacet
facet normal 0.0 0.0 1.0
outer loop
vertex 316.422757268393 4.8225247792897 -1.5
vertex 316.422757268393 0.857040621610465 -1.5
vertex 317.052946548666 5.64380343903307 -1.5
endloop
endfacet
facet normal 0.0 0.0 1.0
outer loop
vertex 317.052946548666 5.64380343903307 -1.5
vertex 316.422757268393 0.857040621610465 -1.5
vertex 317.052946548666 0.0357619618671847 -1.5
endloop
endfacet
facet normal 0.0 0.0 1.0
outer loop
vertex 317.052946548666 5.64380343903307 -1.5
vertex 317.052946548666 0.0357619618671847 -1.5
vertex 317.874225208409 -0.594427318404969 -1.5
endloop
endfacet
facet normal 0.0 0.0 1.0
outer loop
vertex 317.052946548666 5.64380343903307 -1.5
vertex 317.874225208409 -0.594427318404969 -1.5
vertex 317.874225208409 6.27399271930521 -1.5
endloop
endfacet
facet normal 0.0 0.0 1.0
outer loop
vertex 317.874225208409 6.27399271930521 -1.5
vertex 317.874225208409 -0.594427318404969 -1.5
vertex 318.830624464189 -0.990580861192565 -1.5
endloop
endfacet
facet normal 0.0 0.0 1.0
outer loop
vertex 317.874225208409 6.27399271930521 -1.5
vertex 318.830624464189 -0.990580861192565 -1.5
vertex 318.830624464189 6.6701462620928 -1.5
endloop
endfacet
facet normal 0.0 0.0 1.0
outer loop
vertex 318.830624464189 6.6701462620928 -1.5
vertex 318.830624464189 -0.990580861192565 -1.5
vertex 319.856967287249 -1.12570145722928 -1.5
endloop
endfacet
facet normal 0.0 0.0 1.0
outer loop
vertex 318.830624464189 6.6701462620928 -1.5
vertex 319.856967287249 -1.12570145722928 -1.5
vertex 319.856967287249 6.80526685812951 -1.5
endloop
endfacet
facet normal 0.0 0.0 1.0
outer loop
vertex 319.856967287249 6.80526685812951 -1.5
vertex 319.856967287249 -1.12570145722928 -1.5
vertex 320.883310110308 -0.990580861192565 -1.5
endloop
endfacet
facet normal 0.0 0.0 1.0
outer loop
vertex 319.856967287249 6.80526685812951 -1.5
vertex 320.883310110308 -0.990580861192565 -1.5
vertex 320.883310110308 6.6701462620928 -1.5
endloop
endfacet
facet normal 0.0 0.0 1.0
outer loop
vertex 320.883310110308 6.6701462620928 -1.5
vertex 320.883310110308 -0.990580861192565 -1.5
vertex 321.839709366088 -0.594427318404969 -1.5
endloop
endfacet
facet normal 0.0 0.0 1.0
outer loop
vertex 320.883310110308 6.6701462620928 -1.5
vertex 321.839709366088 -0.594427318404969 -1.5
vertex 321.839709366088 6.27399271930521 -1.5
endloop
endfacet
facet normal 0.0 0.0 1.0
outer loop
vertex 321.839709366088 6.27399271930521 -1.5
vertex 321.839709366088 -0.594427318404969 -1.5
vertex 322.660988025831 0.0357619618671621 -1.5
endloop
endfacet
facet normal 0.0 0.0 1.0
outer loop
vertex 321.839709366088 6.27399271930521 -1.5
vertex 322.660988025831 0.0357619618671621 -1.5
vertex 322.660988025832 5.64380343903305 -1.5
endloop
endfacet
facet normal 0.0 0.0 1.0
outer loop
vertex 322.660988025832 5.64380343903305 -1.5
vertex 322.660988025831 0.0357619618671621 -1.5
vertex 323.291177306104 0.857040621610465 -1.5
endloop
endfacet
facet normal 0.0 0.0 1.0
outer loop
vertex 322.660988025832 5.64380343903305 -1.5
vertex 323.291177306104 0.857040621610465 -1.5
vertex 323.291177306104 4.82252477928977 -1.5
endloop
endfacet
facet normal 0.0 0.0 1.0
outer loop
vertex 323.291177306104 4.82252477928977 -1.5
vertex 323.291177306104 0.857040621610465 -1.5
vertex 323.687330848891 1.81343987739032 -1.5
endloop
endfacet
facet normal 0.0 0.0 1.0
outer loop
vertex 323.291177306104 4.82252477928977 -1.5
vertex 323.687330848891 1.81343987739032 -1.5
vertex 323.687330848891 3.86612552350989 -1.5
endloop
endfacet
facet normal 0.0 0.0 1.0
outer loop
vertex 323.687330848891 3.86612552350989 -1.5
vertex 323.687330848891 1.81343987739032 -1.5
vertex 323.822451444928 2.83978270045021 -1.5
endloop
endfacet
facet normal 0.0 0.0 -1.0
outer loop
vertex 312.129560676936 4.91033506127028 -3.5
vertex 312.129560676936 0.769230339629959 -3.5
vertex 311.856967287249 2.83978270045012 -3.5
endloop
endfacet
facet normal 0.0 0.0 -1.0
outer loop
vertex 312.129560676936 0.769230339629959 -3.5
vertex 312.129560676936 4.91033506127028 -3.5
vertex 312.928764056973 6.83978270045013 -3.5
endloop
endfacet
facet normal 0.0 0.0 -1.0
outer loop
vertex 312.129560676936 0.769230339629959 -3.5
vertex 312.928764056973 6.83978270045013 -3.5
vertex 312.928764056973 -1.16021729954987 -3.5
endloop
endfacet
facet normal 0.0 0.0 -1.0
outer loop
vertex 312.928764056973 -1.16021729954987 -3.5
vertex 312.928764056973 6.83978270045013 -3.5
vertex 314.200113037756 8.49663694994251 -3.5
endloop
endfacet
facet normal 0.0 0.0 -1.0
outer loop
vertex 312.928764056973 -1.16021729954987 -3.5
vertex 314.200113037756 8.49663694994251 -3.5
vertex 314.200113037756 -2.81707154904228 -3.5
endloop
endfacet
facet normal 0.0 0.0 -1.0
outer loop
vertex 314.200113037756 -2.81707154904228 -3.5
vertex 314.200113037756 8.49663694994251 -3.5
vertex 315.856967287249 9.76798593072563 -3.5
endloop
endfacet
facet normal 0.0 0.0 -1.0
outer loop
vertex 314.200113037756 -2.81707154904228 -3.5
vertex 315.856967287249 9.76798593072563 -3.5
vertex 315.856967287249 -4.0884205298254 -3.5
endloop
endfacet
facet normal 0.0 0.0 -1.0
outer loop
vertex 315.856967287249 -4.0884205298254 -3.5
vertex 315.856967287249 9.76798593072563 -3.5
vertex 317.786414926428 10.5671893107627 -3.5
endloop
endfacet
facet normal 0.0 0.0 -1.0
outer loop
vertex 315.856967287249 -4.0884205298254 -3.5
vertex 317.786414926428 10.5671893107627 -3.5
vertex 317.786414926428 -4.88762390986244 -3.5
endloop
endfacet
facet normal 0.0 0.0 -1.0
outer loop
vertex 317.786414926428 -4.88762390986244 -3.5
vertex 317.786414926428 10.5671893107627 -3.5
vertex 319.856967287249 10.8397827004501 -3.5
endloop
endfacet
facet normal 0.0 0.0 -1.0
outer loop
vertex 317.786414926428 -4.88762390986244 -3.5
vertex 319.856967287249 10.8397827004501 -3.5
vertex 319.856967287249 -5.16021729954989 -3.5
endloop
endfacet
facet normal 0.0 0.0 -1.0
outer loop
vertex 319.856967287249 -5.16021729954989 -3.5
vertex 319.856967287249 10.8397827004501 -3.5
vertex 321.927519648069 10.5671893107627 -3.5
endloop
endfacet
facet normal 0.0 0.0 -1.0
outer loop
vertex 319.856967287249 -5.16021729954989 -3.5
vertex 321.927519648069 10.5671893107627 -3.5
vertex 321.927519648069 -4.88762390986244 -3.5
endloop
endfacet
facet normal 0.0 0.0 -1.0
outer loop
vertex 321.927519648069 -4.88762390986244 -3.5
vertex 321.927519648069 10.5671893107627 -3.5
vertex 323.856967287249 9.76798593072563 -3.5
endloop
endfacet
facet normal 0.0 0.0 -1.0
outer loop
vertex 321.927519648069 -4.88762390986244 -3.5
vertex 323.856967287249 9.76798593072563 -3.5
vertex 323.856967287249 -4.0884205298254 -3.5
endloop
endfacet
facet normal 0.0 0.0 -1.0
outer loop
vertex 323.856967287249 -4.0884205298254 -3.5
vertex 323.856967287249 9.76798593072563 -3.5
vertex 325.513821536741 8.49663694994251 -3.5
endloop
endfacet
facet normal 0.0 0.0 -1.0
outer loop
vertex 323.856967287249 -4.0884205298254 -3.5
vertex 325.513821536741 8.49663694994251 -3.5
vertex 325.513821536741 -2.81707154904228 -3.5
endloop
endfacet
facet normal 0.0 0.0 -1.0
outer loop
vertex 325.513821536741 -2.81707154904228 -3.5
vertex 325.513821536741 8.49663694994251 -3.5
vertex 326.785170517524 6.83978270045011 -3.5
endloop
endfacet
facet normal 0.0 0.0 -1.0
outer loop
vertex 325.513821536741 -2.81707154904228 -3.5
vertex 326.785170517524 6.83978270045011 -3.5
vertex 326.785170517524 -1.1602172995499 -3.5
endloop
endfacet
facet normal 0.0 0.0 -1.0
outer loop
vertex 326.785170517524 -1.1602172995499 -3.5
vertex 326.785170517524 6.83978270045011 -3.5
vertex 327.584373897561 4.91033506127028 -3.5
endloop
endfacet
facet normal 0.0 0.0 -1.0
outer loop
vertex 326.785170517524 -1.1602172995499 -3.5
vertex 327.584373897561 4.91033506127028 -3.5
vertex 327.584373897561 0.769230339629936 -3.5
endloop
endfacet
facet normal 0.0 0.0 -1.0
outer loop
vertex 327.584373897561 0.769230339629936 -3.5
vertex 327.584373897561 4.91033506127028 -3.5
vertex 327.856967287249 2.83978270045012 -3.5
endloop
endfacet
facet normal 0.965925826289071 -0.258819045102513 9.56502320825805e-032
outer loop
vertex 316.026603725606 3.86612552350994 -1.5
vertex 315.891483129569 2.83978270045012 10.5
vertex 315.891483129569 2.83978270045012 -1.5
endloop
endfacet
facet normal 1.0 2.82482183692007e-015 -1.45406727025059e-032
outer loop
vertex 315.891483129569 2.83978270045012 10.5
vertex 316.026603725606 3.86612552350994 -1.5
vertex 316.026603725606 3.86612552350994 10.5
endloop
endfacet
facet normal 0.0 0.0 1.0
outer loop
vertex 313.103821439103 1.03028272407008 11.5
vertex 313.103821439103 4.64928267683016 11.5
vertex 312.865596247829 2.83978270045012 11.5
endloop
endfacet
facet normal 0.0 0.0 1.0
outer loop
vertex 313.103821439103 4.64928267683016 11.5
vertex 313.103821439103 1.03028272407008 11.5
vertex 313.802262359828 -0.655902819259914 11.5
endloop
endfacet
facet normal 0.0 0.0 1.0
outer loop
vertex 313.103821439103 4.64928267683016 11.5
vertex 313.802262359828 -0.655902819259914 11.5
vertex 313.802262359828 6.3354682201601 11.5
endloop
endfacet
facet normal 0.0 0.0 1.0
outer loop
vertex 313.802262359828 6.3354682201601 11.5
vertex 313.802262359828 -0.655902819259914 11.5
vertex 314.913321415483 -2.10386317131492 11.5
endloop
endfacet
facet normal 0.0 0.0 1.0
outer loop
vertex 313.802262359828 6.3354682201601 11.5
vertex 314.913321415483 -2.10386317131492 11.5
vertex 314.882854168989 2.83978270045012 11.5
endloop
endfacet
facet normal 0.0 0.0 1.0
outer loop
vertex 314.882854168989 2.83978270045012 11.5
vertex 314.913321415483 -2.10386317131492 11.5
vertex 315.052342963438 1.55238749295025 11.5
endloop
endfacet
facet normal 0.0 0.0 1.0
outer loop
vertex 315.052342963438 1.55238749295025 11.5
vertex 314.913321415483 -2.10386317131492 11.5
vertex 316.361281767539 -3.21492222697029 11.5
endloop
endfacet
facet normal 0.0 0.0 1.0
outer loop
vertex 315.052342963438 1.55238749295025 11.5
vertex 316.361281767539 -3.21492222697029 11.5
vertex 315.549258965538 0.352726141320414 11.5
endloop
endfacet
facet normal 0.0 0.0 1.0
outer loop
vertex 315.549258965538 0.352726141320414 11.5
vertex 316.361281767539 -3.21492222697029 11.5
vertex 316.339738170938 -0.677446415860192 11.5
endloop
endfacet
facet normal 0.0 0.0 1.0
outer loop
vertex 316.339738170938 -0.677446415860192 11.5
vertex 316.361281767539 -3.21492222697029 11.5
vertex 317.369910728119 -1.46792562126003 11.5
endloop
endfacet
facet normal 0.0 0.0 1.0
outer loop
vertex 317.369910728119 -1.46792562126003 11.5
vertex 316.361281767539 -3.21492222697029 11.5
vertex 318.047467310868 -3.91336314769494 11.5
endloop
endfacet
facet normal 0.0 0.0 1.0
outer loop
vertex 317.369910728119 -1.46792562126003 11.5
vertex 318.047467310868 -3.91336314769494 11.5
vertex 318.569572079749 -1.96484162336006 11.5
endloop
endfacet
facet normal 0.0 0.0 1.0
outer loop
vertex 318.569572079749 -1.96484162336006 11.5
vertex 318.047467310868 -3.91336314769494 11.5
vertex 319.856967287249 -4.15158833896972 11.5
endloop
endfacet
facet normal 0.0 0.0 1.0
outer loop
vertex 318.569572079749 -1.96484162336006 11.5
vertex 319.856967287249 -4.15158833896972 11.5
vertex 319.856967287249 -2.13433041780945 11.5
endloop
endfacet
facet normal 0.0 0.0 1.0
outer loop
vertex 319.856967287249 -2.13433041780945 11.5
vertex 319.856967287249 -4.15158833896972 11.5
vertex 321.666467263629 -3.91336314769494 11.5
endloop
endfacet
facet normal 0.0 0.0 1.0
outer loop
vertex 319.856967287249 -2.13433041780945 11.5
vertex 321.666467263629 -3.91336314769494 11.5
vertex 321.144362494748 -1.96484162336006 11.5
endloop
endfacet
facet normal 0.0 0.0 1.0
outer loop
vertex 321.144362494748 -1.96484162336006 11.5
vertex 321.666467263629 -3.91336314769494 11.5
vertex 322.344023846378 -1.46792562126005 11.5
endloop
endfacet
facet normal 0.0 0.0 1.0
outer loop
vertex 322.344023846378 -1.46792562126005 11.5
vertex 321.666467263629 -3.91336314769494 11.5
vertex 323.352652806958 -3.21492222697029 11.5
endloop
endfacet
facet normal 0.0 0.0 1.0
outer loop
vertex 322.344023846378 -1.46792562126005 11.5
vertex 323.352652806958 -3.21492222697029 11.5
vertex 323.374196403559 -0.677446415860169 11.5
endloop
endfacet
facet normal 0.0 0.0 1.0
outer loop
vertex 323.374196403559 -0.677446415860169 11.5
vertex 323.352652806958 -3.21492222697029 11.5
vertex 324.800613159014 -2.10386317131494 11.5
endloop
endfacet
facet normal 0.0 0.0 1.0
outer loop
vertex 323.374196403559 -0.677446415860169 11.5
vertex 324.800613159014 -2.10386317131494 11.5
vertex 324.164675608959 0.352726141320391 11.5
endloop
endfacet
facet normal 0.0 0.0 1.0
outer loop
vertex 324.164675608959 0.352726141320391 11.5
vertex 324.800613159014 -2.10386317131494 11.5
vertex 324.661591611059 1.55238749295027 11.5
endloop
endfacet
facet normal 0.0 0.0 1.0
outer loop
vertex 324.661591611059 1.55238749295027 11.5
vertex 324.800613159014 -2.10386317131494 11.5
vertex 324.831080405508 2.83978270045019 11.5
endloop
endfacet
facet normal 0.0 0.0 1.0
outer loop
vertex 324.831080405508 2.83978270045019 11.5
vertex 324.800613159014 -2.10386317131494 11.5
vertex 325.911672214669 -0.655902819259846 11.5
endloop
endfacet
facet normal 0.0 0.0 1.0
outer loop
vertex 324.831080405508 2.83978270045019 11.5
vertex 325.911672214669 -0.655902819259846 11.5
vertex 325.911672214669 6.33546822016015 11.5
endloop
endfacet
facet normal 0.0 0.0 1.0
outer loop
vertex 325.911672214669 6.33546822016015 11.5
vertex 325.911672214669 -0.655902819259846 11.5
vertex 326.610113135394 4.64928267683016 11.5
endloop
endfacet
facet normal 0.0 0.0 1.0
outer loop
vertex 326.610113135394 4.64928267683016 11.5
vertex 325.911672214669 -0.655902819259846 11.5
vertex 326.610113135394 1.03028272407003 11.5
endloop
endfacet
facet normal 0.0 0.0 1.0
outer loop
vertex 326.610113135394 4.64928267683016 11.5
vertex 326.610113135394 1.03028272407003 11.5
vertex 326.848338326668 2.83978270045014 11.5
endloop
endfacet
facet normal 0.0 0.0 1.0
outer loop
vertex 314.882854168989 2.83978270045012 11.5
vertex 314.913321415484 7.78342857221518 11.5
vertex 313.802262359828 6.3354682201601 11.5
endloop
endfacet
facet normal 0.0 0.0 1.0
outer loop
vertex 314.913321415484 7.78342857221518 11.5
vertex 314.882854168989 2.83978270045012 11.5
vertex 315.052342963438 4.12717790795001 11.5
endloop
endfacet
facet normal 0.0 0.0 1.0
outer loop
vertex 314.913321415484 7.78342857221518 11.5
vertex 315.052342963438 4.12717790795001 11.5
vertex 316.361281767539 8.89448762787053 11.5
endloop
endfacet
facet normal 0.0 0.0 1.0
outer loop
vertex 316.361281767539 8.89448762787053 11.5
vertex 315.052342963438 4.12717790795001 11.5
vertex 315.549258965538 5.32683925957975 11.5
endloop
endfacet
facet normal 0.0 0.0 1.0
outer loop
vertex 316.361281767539 8.89448762787053 11.5
vertex 315.549258965538 5.32683925957975 11.5
vertex 316.339738170938 6.35701181676041 11.5
endloop
endfacet
facet normal 0.0 0.0 1.0
outer loop
vertex 316.361281767539 8.89448762787053 11.5
vertex 316.339738170938 6.35701181676041 11.5
vertex 317.369910728119 7.14749102216029 11.5
endloop
endfacet
facet normal 0.0 0.0 1.0
outer loop
vertex 316.361281767539 8.89448762787053 11.5
vertex 317.369910728119 7.14749102216029 11.5
vertex 318.047467310868 9.59292854859518 11.5
endloop
endfacet
facet normal 0.0 0.0 1.0
outer loop
vertex 318.047467310868 9.59292854859518 11.5
vertex 317.369910728119 7.14749102216029 11.5
vertex 318.569572079749 7.6444070242603 11.5
endloop
endfacet
facet normal 0.0 0.0 1.0
outer loop
vertex 318.047467310868 9.59292854859518 11.5
vertex 318.569572079749 7.6444070242603 11.5
vertex 319.856967287249 9.83115373986996 11.5
endloop
endfacet
facet normal 0.0 0.0 1.0
outer loop
vertex 319.856967287249 9.83115373986996 11.5
vertex 318.569572079749 7.6444070242603 11.5
vertex 319.856967287249 7.81389581870968 11.5
endloop
endfacet
facet normal 0.0 0.0 1.0
outer loop
vertex 319.856967287249 9.83115373986996 11.5
vertex 319.856967287249 7.81389581870968 11.5
vertex 321.144362494748 7.6444070242603 11.5
endloop
endfacet
facet normal 0.0 0.0 1.0
outer loop
vertex 319.856967287249 9.83115373986996 11.5
vertex 321.144362494748 7.6444070242603 11.5
vertex 321.666467263629 9.59292854859518 11.5
endloop
endfacet
facet normal 0.0 0.0 1.0
outer loop
vertex 321.666467263629 9.59292854859518 11.5
vertex 321.144362494748 7.6444070242603 11.5
vertex 322.344023846378 7.14749102216027 11.5
endloop
endfacet
facet normal 0.0 0.0 1.0
outer loop
vertex 321.666467263629 9.59292854859518 11.5
vertex 322.344023846378 7.14749102216027 11.5
vertex 323.352652806958 8.89448762787053 11.5
endloop
endfacet
facet normal 0.0 0.0 1.0
outer loop
vertex 323.352652806958 8.89448762787053 11.5
vertex 322.344023846378 7.14749102216027 11.5
vertex 323.374196403559 6.35701181676043 11.5
endloop
endfacet
facet normal 0.0 0.0 1.0
outer loop
vertex 323.352652806958 8.89448762787053 11.5
vertex 323.374196403559 6.35701181676043 11.5
vertex 324.800613159014 7.78342857221516 11.5
endloop
endfacet
facet normal 0.0 0.0 1.0
outer loop
vertex 324.800613159014 7.78342857221516 11.5
vertex 323.374196403559 6.35701181676043 11.5
vertex 324.164675608959 5.32683925957982 11.5
endloop
endfacet
facet normal 0.0 0.0 1.0
outer loop
vertex 324.800613159014 7.78342857221516 11.5
vertex 324.164675608959 5.32683925957982 11.5
vertex 324.661591611059 4.12717790794999 11.5
endloop
endfacet
facet normal 0.0 0.0 1.0
outer loop
vertex 324.800613159014 7.78342857221516 11.5
vertex 324.661591611059 4.12717790794999 11.5
vertex 324.831080405508 2.83978270045019 11.5
endloop
endfacet
facet normal 0.0 0.0 1.0
outer loop
vertex 324.800613159014 7.78342857221516 11.5
vertex 324.831080405508 2.83978270045019 11.5
vertex 325.911672214669 6.33546822016015 11.5
endloop
endfacet
facet normal -0.499999999999996 -0.866025403784441 1.53455859491547e-019
outer loop
vertex 321.839709366088 6.27399271930521 10.5
vertex 320.883310110308 6.6701462620928 -1.5
vertex 321.839709366088 6.27399271930521 -1.5
endloop
endfacet
facet normal -0.258819045102523 -0.965925826289068 1.00577637905494e-018
outer loop
vertex 320.883310110308 6.6701462620928 -1.5
vertex 321.839709366088 6.27399271930521 10.5
vertex 320.883310110308 6.6701462620928 10.5
endloop
endfacet
facet normal -0.965925826289069 -0.25881904510252 7.49974159661271e-019
outer loop
vertex 323.687330848891 3.86612552350989 10.5
vertex 323.822451444928 2.83978270045021 -1.5
vertex 323.822451444928 2.83978270045021 10.5
endloop
endfacet
facet normal -1.0 8.80417657689916e-015 3.09531114391804e-031
outer loop
vertex 323.822451444928 2.83978270045021 -1.5
vertex 323.687330848891 3.86612552350989 10.5
vertex 323.687330848891 3.86612552350989 -1.5
endloop
endfacet
facet normal -1.0 8.80417657689916e-015 3.09531114391804e-031
outer loop
vertex 323.822451444928 2.83978270045021 10.5
vertex 323.687330848891 1.81343987739032 -1.5
vertex 323.687330848891 1.81343987739032 10.5
endloop
endfacet
facet normal -0.965925826289071 0.258819045102513 6.40103828747065e-031
outer loop
vertex 323.687330848891 1.81343987739032 -1.5
vertex 323.822451444928 2.83978270045021 10.5
vertex 323.822451444928 2.83978270045021 -1.5
endloop
endfacet
facet normal 0.707106781186542 -0.707106781186553 4.41899478656644e-032
outer loop
vertex 317.052946548666 5.64380343903307 -1.5
vertex 316.422757268393 4.8225247792897 10.5
vertex 316.422757268393 4.8225247792897 -1.5
endloop
endfacet
facet normal 0.866025403784439 -0.5 1.45406727025075e-032
outer loop
vertex 316.422757268393 4.8225247792897 10.5
vertex 317.052946548666 5.64380343903307 -1.5
vertex 317.052946548666 5.64380343903307 10.5
endloop
endfacet
facet normal 0.0 1.0 0.0
outer loop
vertex 319.856967287249 -1.12570145722928 10.5
vertex 320.883310110308 -0.990580861192565 -1.5
vertex 319.856967287249 -1.12570145722928 -1.5
endloop
endfacet
facet normal -0.258819045102523 0.965925826289068 4.94171940268248e-019
outer loop
vertex 320.883310110308 -0.990580861192565 -1.5
vertex 319.856967287249 -1.12570145722928 10.5
vertex 320.883310110308 -0.990580861192565 10.5
endloop
endfacet
facet normal -0.707106781186545 -0.70710678118655 -1.37391608431542e-018
outer loop
vertex 322.660988025832 5.64380343903305 10.5
vertex 323.291177306104 4.82252477928977 -1.5
vertex 323.291177306104 4.82252477928977 10.5
endloop
endfacet
facet normal -0.866025403784443 -0.499999999999993 -2.74236244842359e-020
outer loop
vertex 323.291177306104 4.82252477928977 -1.5
vertex 322.660988025832 5.64380343903305 10.5
vertex 322.660988025832 5.64380343903305 -1.5
endloop
endfacet
facet normal 0.866025403784443 0.499999999999993 7.77397784145685e-019
outer loop
vertex 316.422757268393 0.857040621610465 -1.5
vertex 317.052946548666 0.0357619618671847 10.5
vertex 317.052946548666 0.0357619618671847 -1.5
endloop
endfacet
facet normal 0.707106781186545 0.70710678118655 1.3739160843156e-018
outer loop
vertex 317.052946548666 0.0357619618671847 10.5
vertex 316.422757268393 0.857040621610465 -1.5
vertex 316.422757268393 0.857040621610465 10.5
endloop
endfacet
facet normal -0.866025403784446 0.499999999999988 5.9651830017053e-019
outer loop
vertex 323.291177306104 0.857040621610465 10.5
vertex 322.660988025831 0.0357619618671621 -1.5
vertex 322.660988025831 0.0357619618671621 10.5
endloop
endfacet
facet normal -0.70710678118654 0.707106781186555 5.96518300170351e-019
outer loop
vertex 322.660988025831 0.0357619618671621 -1.5
vertex 323.291177306104 0.857040621610465 10.5
vertex 323.291177306104 0.857040621610465 -1.5
endloop
endfacet
facet normal -0.866025403784443 -0.499999999999993 -2.74236244842359e-020
outer loop
vertex 323.291177306104 4.82252477928977 10.5
vertex 323.687330848891 3.86612552350989 -1.5
vertex 323.687330848891 3.86612552350989 10.5
endloop
endfacet
facet normal -0.965925826289069 -0.25881904510252 7.49974159661271e-019
outer loop
vertex 323.687330848891 3.86612552350989 -1.5
vertex 323.291177306104 4.82252477928977 10.5
vertex 323.291177306104 4.82252477928977 -1.5
endloop
endfacet
facet normal 1.0 2.82482183692007e-015 -1.45406727025059e-032
outer loop
vertex 315.891483129569 2.83978270045012 -1.5
vertex 316.026603725606 1.81343987739035 10.5
vertex 316.026603725606 1.81343987739035 -1.5
endloop
endfacet
facet normal 0.96592582628907 0.258819045102514 -2.85858839974735e-032
outer loop
vertex 316.026603725606 1.81343987739035 10.5
vertex 315.891483129569 2.83978270045012 -1.5
vertex 315.891483129569 2.83978270045012 10.5
endloop
endfacet
facet normal 0.258819045102523 -0.965925826289068 -1.00577637905525e-018
outer loop
vertex 318.830624464189 6.6701462620928 10.5
vertex 317.874225208409 6.27399271930521 -1.5
vertex 318.830624464189 6.6701462620928 -1.5
endloop
endfacet
facet normal 0.5 -0.866025403784439 -7.49974159661614e-019
outer loop
vertex 317.874225208409 6.27399271930521 -1.5
vertex 318.830624464189 6.6701462620928 10.5
vertex 317.874225208409 6.27399271930521 10.5
endloop
endfacet
facet normal 0.0 -1.0 0.0
outer loop
vertex 319.856967287249 6.80526685812951 10.5
vertex 318.830624464189 6.6701462620928 -1.5
vertex 319.856967287249 6.80526685812951 -1.5
endloop
endfacet
facet normal 0.258819045102523 -0.965925826289068 -1.00577637905525e-018
outer loop
vertex 318.830624464189 6.6701462620928 -1.5
vertex 319.856967287249 6.80526685812951 10.5
vertex 318.830624464189 6.6701462620928 10.5
endloop
endfacet
facet normal -0.707106781186547 0.707106781186548 0.0
outer loop
vertex 314.913321415484 7.78342857221518 11.5
vertex 313.802262359828 6.3354682201601 -1.5
vertex 313.802262359828 6.3354682201601 11.5
endloop
endfacet
facet normal -0.866025403784439 0.5 0.0
outer loop
vertex 313.802262359828 6.3354682201601 -1.5
vertex 314.913321415484 7.78342857221518 11.5
vertex 314.913321415484 7.78342857221518 -1.5
endloop
endfacet
facet normal -0.86602540378444 -0.499999999999997 0.0
outer loop
vertex 313.802262359828 -0.655902819259914 11.5
vertex 314.913321415483 -2.10386317131492 -1.5
vertex 314.913321415483 -2.10386317131492 11.5
endloop
endfacet
facet normal -0.707106781186544 -0.707106781186551 0.0
outer loop
vertex 314.913321415483 -2.10386317131492 -1.5
vertex 313.802262359828 -0.655902819259914 11.5
vertex 313.802262359828 -0.655902819259914 -1.5
endloop
endfacet
facet normal -0.707106781186545 -0.70710678118655 -1.37391608431542e-018
outer loop
vertex 322.660988025832 5.64380343903305 10.5
vertex 321.839709366088 6.27399271930521 -1.5
vertex 322.660988025832 5.64380343903305 -1.5
endloop
endfacet
facet normal -0.499999999999996 -0.866025403784441 1.53455859491547e-019
outer loop
vertex 321.839709366088 6.27399271930521 -1.5
vertex 322.660988025832 5.64380343903305 10.5
vertex 321.839709366088 6.27399271930521 10.5
endloop
endfacet
facet normal -1.0 0.0 0.0
outer loop
vertex 312.865596247829 2.83978270045012 11.5
vertex 313.103821439103 1.03028272407008 -1.5
vertex 313.103821439103 1.03028272407008 11.5
endloop
endfacet
facet normal -0.96592582628907 -0.258819045102516 0.0
outer loop
vertex 313.103821439103 1.03028272407008 -1.5
vertex 312.865596247829 2.83978270045012 11.5
vertex 312.865596247829 2.83978270045012 -1.5
endloop
endfacet
facet normal -0.965925826289068 0.258819045102521 0.0
outer loop
vertex 313.103821439103 4.64928267683016 11.5
vertex 312.865596247829 2.83978270045012 -1.5
vertex 312.865596247829 2.83978270045012 11.5
endloop
endfacet
facet normal -1.0 0.0 0.0
outer loop
vertex 312.865596247829 2.83978270045012 -1.5
vertex 313.103821439103 4.64928267683016 11.5
vertex 313.103821439103 4.64928267683016 -1.5
endloop
endfacet
facet normal -0.707106781186547 0.707106781186548 0.0
outer loop
vertex 314.913321415484 7.78342857221518 11.5
vertex 316.361281767539 8.89448762787053 -1.5
vertex 314.913321415484 7.78342857221518 -1.5
endloop
endfacet
facet normal -0.500000000000001 0.866025403784438 0.0
outer loop
vertex 316.361281767539 8.89448762787053 -1.5
vertex 314.913321415484 7.78342857221518 11.5
vertex 316.361281767539 8.89448762787053 11.5
endloop
endfacet
facet normal 0.0 0.0 1.0
outer loop
vertex 312.129560676936 0.769230339629959 -1.5
vertex 312.129560676936 4.91033506127028 -1.5
vertex 311.856967287249 2.83978270045012 -1.5
endloop
endfacet
facet normal 0.0 0.0 1.0
outer loop
vertex 312.129560676936 4.91033506127028 -1.5
vertex 312.129560676936 0.769230339629959 -1.5
vertex 312.928764056973 -1.16021729954987 -1.5
endloop
endfacet
facet normal 0.0 0.0 1.0
outer loop
vertex 312.129560676936 4.91033506127028 -1.5
vertex 312.928764056973 -1.16021729954987 -1.5
vertex 312.865596247829 2.83978270045012 -1.5
endloop
endfacet
facet normal 0.0 0.0 1.0
outer loop
vertex 312.865596247829 2.83978270045012 -1.5
vertex 312.928764056973 -1.16021729954987 -1.5
vertex 313.103821439103 1.03028272407008 -1.5
endloop
endfacet
facet normal 0.0 0.0 1.0
outer loop
vertex 313.103821439103 1.03028272407008 -1.5
vertex 312.928764056973 -1.16021729954987 -1.5
vertex 314.200113037756 -2.81707154904228 -1.5
endloop
endfacet
facet normal 0.0 0.0 1.0
outer loop
vertex 313.103821439103 1.03028272407008 -1.5
vertex 314.200113037756 -2.81707154904228 -1.5
vertex 313.802262359828 -0.655902819259914 -1.5
endloop
endfacet
facet normal 0.0 0.0 1.0
outer loop
vertex 313.802262359828 -0.655902819259914 -1.5
vertex 314.200113037756 -2.81707154904228 -1.5
vertex 314.913321415483 -2.10386317131492 -1.5
endloop
endfacet
facet normal 0.0 0.0 1.0
outer loop
vertex 314.913321415483 -2.10386317131492 -1.5
vertex 314.200113037756 -2.81707154904228 -1.5
vertex 315.856967287249 -4.0884205298254 -1.5
endloop
endfacet
facet normal 0.0 0.0 1.0
outer loop
vertex 314.913321415483 -2.10386317131492 -1.5
vertex 315.856967287249 -4.0884205298254 -1.5
vertex 316.361281767539 -3.21492222697029 -1.5
endloop
endfacet
facet normal 0.0 0.0 1.0
outer loop
vertex 316.361281767539 -3.21492222697029 -1.5
vertex 315.856967287249 -4.0884205298254 -1.5
vertex 317.786414926428 -4.88762390986244 -1.5
endloop
endfacet
facet normal 0.0 0.0 1.0
outer loop
vertex 316.361281767539 -3.21492222697029 -1.5
vertex 317.786414926428 -4.88762390986244 -1.5
vertex 318.047467310868 -3.91336314769494 -1.5
endloop
endfacet
facet normal 0.0 0.0 1.0
outer loop
vertex 318.047467310868 -3.91336314769494 -1.5
vertex 317.786414926428 -4.88762390986244 -1.5
vertex 319.856967287249 -5.16021729954989 -1.5
endloop
endfacet
facet normal 0.0 0.0 1.0
outer loop
vertex 318.047467310868 -3.91336314769494 -1.5
vertex 319.856967287249 -5.16021729954989 -1.5
vertex 319.856967287249 -4.15158833896972 -1.5
endloop
endfacet
facet normal 0.0 0.0 1.0
outer loop
vertex 319.856967287249 -4.15158833896972 -1.5
vertex 319.856967287249 -5.16021729954989 -1.5
vertex 321.927519648069 -4.88762390986244 -1.5
endloop
endfacet
facet normal 0.0 0.0 1.0
outer loop
vertex 319.856967287249 -4.15158833896972 -1.5
vertex 321.927519648069 -4.88762390986244 -1.5
vertex 321.666467263629 -3.91336314769494 -1.5
endloop
endfacet
facet normal 0.0 0.0 1.0
outer loop
vertex 321.666467263629 -3.91336314769494 -1.5
vertex 321.927519648069 -4.88762390986244 -1.5
vertex 323.352652806958 -3.21492222697029 -1.5
endloop
endfacet
facet normal 0.0 0.0 1.0
outer loop
vertex 323.352652806958 -3.21492222697029 -1.5
vertex 321.927519648069 -4.88762390986244 -1.5
vertex 323.856967287249 -4.0884205298254 -1.5
endloop
endfacet
facet normal 0.0 0.0 1.0
outer loop
vertex 323.352652806958 -3.21492222697029 -1.5
vertex 323.856967287249 -4.0884205298254 -1.5
vertex 324.800613159014 -2.10386317131494 -1.5
endloop
endfacet
facet normal 0.0 0.0 1.0
outer loop
vertex 324.800613159014 -2.10386317131494 -1.5
vertex 323.856967287249 -4.0884205298254 -1.5
vertex 325.513821536741 -2.81707154904228 -1.5
endloop
endfacet
facet normal 0.0 0.0 1.0
outer loop
vertex 324.800613159014 -2.10386317131494 -1.5
vertex 325.513821536741 -2.81707154904228 -1.5
vertex 325.911672214669 -0.655902819259846 -1.5
endloop
endfacet
facet normal 0.0 0.0 1.0
outer loop
vertex 325.911672214669 -0.655902819259846 -1.5
vertex 325.513821536741 -2.81707154904228 -1.5
vertex 326.785170517524 -1.1602172995499 -1.5
endloop
endfacet
facet normal 0.0 0.0 1.0
outer loop
vertex 325.911672214669 -0.655902819259846 -1.5
vertex 326.785170517524 -1.1602172995499 -1.5
vertex 326.610113135394 1.03028272407003 -1.5
endloop
endfacet
facet normal 0.0 0.0 1.0
outer loop
vertex 326.610113135394 1.03028272407003 -1.5
vertex 326.785170517524 -1.1602172995499 -1.5
vertex 326.848338326668 2.83978270045014 -1.5
endloop
endfacet
facet normal 0.0 0.0 1.0
outer loop
vertex 326.848338326668 2.83978270045014 -1.5
vertex 326.785170517524 -1.1602172995499 -1.5
vertex 327.584373897561 0.769230339629936 -1.5
endloop
endfacet
facet normal 0.0 0.0 1.0
outer loop
vertex 312.865596247829 2.83978270045012 -1.5
vertex 312.928764056973 6.83978270045013 -1.5
vertex 312.129560676936 4.91033506127028 -1.5
endloop
endfacet
facet normal 0.0 0.0 1.0
outer loop
vertex 312.928764056973 6.83978270045013 -1.5
vertex 312.865596247829 2.83978270045012 -1.5
vertex 313.103821439103 4.64928267683016 -1.5
endloop
endfacet
facet normal 0.0 0.0 1.0
outer loop
vertex 312.928764056973 6.83978270045013 -1.5
vertex 313.103821439103 4.64928267683016 -1.5
vertex 314.200113037756 8.49663694994251 -1.5
endloop
endfacet
facet normal 0.0 0.0 1.0
outer loop
vertex 314.200113037756 8.49663694994251 -1.5
vertex 313.103821439103 4.64928267683016 -1.5
vertex 313.802262359828 6.3354682201601 -1.5
endloop
endfacet
facet normal 0.0 0.0 1.0
outer loop
vertex 314.200113037756 8.49663694994251 -1.5
vertex 313.802262359828 6.3354682201601 -1.5
vertex 314.913321415484 7.78342857221518 -1.5
endloop
endfacet
facet normal 0.0 0.0 1.0
outer loop
vertex 314.200113037756 8.49663694994251 -1.5
vertex 314.913321415484 7.78342857221518 -1.5
vertex 315.856967287249 9.76798593072563 -1.5
endloop
endfacet
facet normal 0.0 0.0 1.0
outer loop
vertex 315.856967287249 9.76798593072563 -1.5
vertex 314.913321415484 7.78342857221518 -1.5
vertex 316.361281767539 8.89448762787053 -1.5
endloop
endfacet
facet normal 0.0 0.0 1.0
outer loop
vertex 315.856967287249 9.76798593072563 -1.5
vertex 316.361281767539 8.89448762787053 -1.5
vertex 317.786414926428 10.5671893107627 -1.5
endloop
endfacet
facet normal 0.0 0.0 1.0
outer loop
vertex 317.786414926428 10.5671893107627 -1.5
vertex 316.361281767539 8.89448762787053 -1.5
vertex 318.047467310868 9.59292854859518 -1.5
endloop
endfacet
facet normal 0.0 0.0 1.0
outer loop
vertex 317.786414926428 10.5671893107627 -1.5
vertex 318.047467310868 9.59292854859518 -1.5
vertex 319.856967287249 10.8397827004501 -1.5
endloop
endfacet
facet normal 0.0 0.0 1.0
outer loop
vertex 319.856967287249 10.8397827004501 -1.5
vertex 318.047467310868 9.59292854859518 -1.5
vertex 319.856967287249 9.83115373986996 -1.5
endloop
endfacet
facet normal 0.0 0.0 1.0
outer loop
vertex 319.856967287249 10.8397827004501 -1.5
vertex 319.856967287249 9.83115373986996 -1.5
vertex 321.666467263629 9.59292854859518 -1.5
endloop
endfacet
facet normal 0.0 0.0 1.0
outer loop
vertex 319.856967287249 10.8397827004501 -1.5
vertex 321.666467263629 9.59292854859518 -1.5
vertex 321.927519648069 10.5671893107627 -1.5
endloop
endfacet
facet normal 0.0 0.0 1.0
outer loop
vertex 321.927519648069 10.5671893107627 -1.5
vertex 321.666467263629 9.59292854859518 -1.5
vertex 323.352652806958 8.89448762787053 -1.5
endloop
endfacet
facet normal 0.0 0.0 1.0
outer loop
vertex 321.927519648069 10.5671893107627 -1.5
vertex 323.352652806958 8.89448762787053 -1.5
vertex 323.856967287249 9.76798593072563 -1.5
endloop
endfacet
facet normal 0.0 0.0 1.0
outer loop
vertex 323.856967287249 9.76798593072563 -1.5
vertex 323.352652806958 8.89448762787053 -1.5
vertex 324.800613159014 7.78342857221516 -1.5
endloop
endfacet
facet normal 0.0 0.0 1.0
outer loop
vertex 323.856967287249 9.76798593072563 -1.5
vertex 324.800613159014 7.78342857221516 -1.5
vertex 325.513821536741 8.49663694994251 -1.5
endloop
endfacet
facet normal 0.0 0.0 1.0
outer loop
vertex 325.513821536741 8.49663694994251 -1.5
vertex 324.800613159014 7.78342857221516 -1.5
vertex 325.911672214669 6.33546822016015 -1.5
endloop
endfacet
facet normal 0.0 0.0 1.0
outer loop
vertex 325.513821536741 8.49663694994251 -1.5
vertex 325.911672214669 6.33546822016015 -1.5
vertex 326.785170517524 6.83978270045011 -1.5
endloop
endfacet
facet normal 0.0 0.0 1.0
outer loop
vertex 326.785170517524 6.83978270045011 -1.5
vertex 325.911672214669 6.33546822016015 -1.5
vertex 326.610113135394 4.64928267683016 -1.5
endloop
endfacet
facet normal 0.0 0.0 1.0
outer loop
vertex 326.785170517524 6.83978270045011 -1.5
vertex 326.610113135394 4.64928267683016 -1.5
vertex 326.848338326668 2.83978270045014 -1.5
endloop
endfacet
facet normal 0.0 0.0 1.0
outer loop
vertex 326.785170517524 6.83978270045011 -1.5
vertex 326.848338326668 2.83978270045014 -1.5
vertex 327.584373897561 4.91033506127028 -1.5
endloop
endfacet
facet normal 0.0 0.0 1.0
outer loop
vertex 327.584373897561 4.91033506127028 -1.5
vertex 326.848338326668 2.83978270045014 -1.5
vertex 327.584373897561 0.769230339629936 -1.5
endloop
endfacet
facet normal 0.0 0.0 1.0
outer loop
vertex 327.584373897561 4.91033506127028 -1.5
vertex 327.584373897561 0.769230339629936 -1.5
vertex 327.856967287249 2.83978270045012 -1.5
endloop
endfacet
facet normal -0.499999999999998 -0.86602540378444 0.0
outer loop
vertex 316.361281767539 -3.21492222697029 11.5
vertex 314.913321415483 -2.10386317131492 -1.5
vertex 316.361281767539 -3.21492222697029 -1.5
endloop
endfacet
facet normal -0.707106781186544 -0.707106781186551 0.0
outer loop
vertex 314.913321415483 -2.10386317131492 -1.5
vertex 316.361281767539 -3.21492222697029 11.5
vertex 314.913321415483 -2.10386317131492 11.5
endloop
endfacet
facet normal -0.96592582628907 -0.258819045102516 0.0
outer loop
vertex 313.103821439103 1.03028272407008 11.5
vertex 313.802262359828 -0.655902819259914 -1.5
vertex 313.802262359828 -0.655902819259914 11.5
endloop
endfacet
facet normal -0.86602540378444 -0.499999999999997 0.0
outer loop
vertex 313.802262359828 -0.655902819259914 -1.5
vertex 313.103821439103 1.03028272407008 11.5
vertex 313.103821439103 1.03028272407008 -1.5
endloop
endfacet
facet normal -0.866025403784439 0.5 0.0
outer loop
vertex 313.802262359828 6.3354682201601 11.5
vertex 313.103821439103 4.64928267683016 -1.5
vertex 313.103821439103 4.64928267683016 11.5
endloop
endfacet
facet normal -0.965925826289068 0.258819045102521 0.0
outer loop
vertex 313.103821439103 4.64928267683016 -1.5
vertex 313.802262359828 6.3354682201601 11.5
vertex 313.802262359828 6.3354682201601 -1.5
endloop
endfacet
facet normal 0.258819045102523 0.965925826289068 1.00577637905556e-018
outer loop
vertex 318.830624464189 -0.990580861192565 10.5
vertex 319.856967287249 -1.12570145722928 -1.5
vertex 318.830624464189 -0.990580861192565 -1.5
endloop
endfacet
facet normal 0.0 1.0 0.0
outer loop
vertex 319.856967287249 -1.12570145722928 -1.5
vertex 318.830624464189 -0.990580861192565 10.5
vertex 319.856967287249 -1.12570145722928 10.5
endloop
endfacet
facet normal 0.965925826289069 0.258819045102517 0.0
outer loop
vertex 326.610113135394 4.64928267683016 -1.5
vertex 326.848338326668 2.83978270045014 11.5
vertex 326.848338326668 2.83978270045014 -1.5
endloop
endfacet
facet normal 1.0 -9.02695432429032e-015 0.0
outer loop
vertex 326.848338326668 2.83978270045014 11.5
vertex 326.610113135394 4.64928267683016 -1.5
vertex 326.610113135394 4.64928267683016 11.5
endloop
endfacet
facet normal 0.0 1.0 0.0
outer loop
vertex 319.856967287249 9.83115373986996 11.5
vertex 321.666467263629 9.59292854859518 -1.5
vertex 319.856967287249 9.83115373986996 -1.5
endloop
endfacet
facet normal 0.258819045102524 0.965925826289068 0.0
outer loop
vertex 321.666467263629 9.59292854859518 -1.5
vertex 319.856967287249 9.83115373986996 11.5
vertex 321.666467263629 9.59292854859518 11.5
endloop
endfacet
facet normal 0.707106781186544 0.707106781186551 0.0
outer loop
vertex 324.800613159014 7.78342857221516 -1.5
vertex 325.911672214669 6.33546822016015 11.5
vertex 325.911672214669 6.33546822016015 -1.5
endloop
endfacet
facet normal 0.86602540378444 0.499999999999997 0.0
outer loop
vertex 325.911672214669 6.33546822016015 11.5
vertex 324.800613159014 7.78342857221516 -1.5
vertex 324.800613159014 7.78342857221516 11.5
endloop
endfacet
facet normal 0.86602540378444 0.499999999999997 0.0
outer loop
vertex 325.911672214669 6.33546822016015 -1.5
vertex 326.610113135394 4.64928267683016 11.5
vertex 326.610113135394 4.64928267683016 -1.5
endloop
endfacet
facet normal 0.965925826289069 0.258819045102517 0.0
outer loop
vertex 326.610113135394 4.64928267683016 11.5
vertex 325.911672214669 6.33546822016015 -1.5
vertex 325.911672214669 6.33546822016015 11.5
endloop
endfacet
facet normal -0.5 0.866025403784439 7.49974159661879e-019
outer loop
vertex 321.839709366088 -0.594427318404969 10.5
vertex 322.660988025831 0.0357619618671621 -1.5
vertex 321.839709366088 -0.594427318404969 -1.5
endloop
endfacet
facet normal -0.70710678118654 0.707106781186555 5.96518300170351e-019
outer loop
vertex 322.660988025831 0.0357619618671621 -1.5
vertex 321.839709366088 -0.594427318404969 10.5
vertex 322.660988025831 0.0357619618671621 10.5
endloop
endfacet
facet normal 0.499999999999998 0.86602540378444 0.0
outer loop
vertex 323.352652806958 8.89448762787053 11.5
vertex 324.800613159014 7.78342857221516 -1.5
vertex 323.352652806958 8.89448762787053 -1.5
endloop
endfacet
facet normal 0.707106781186544 0.707106781186551 0.0
outer loop
vertex 324.800613159014 7.78342857221516 -1.5
vertex 323.352652806958 8.89448762787053 11.5
vertex 324.800613159014 7.78342857221516 11.5
endloop
endfacet
facet normal 0.96592582628907 -0.258819045102515 0.0
outer loop
vertex 326.610113135394 1.03028272407003 -1.5
vertex 325.911672214669 -0.655902819259846 11.5
vertex 325.911672214669 -0.655902819259846 -1.5
endloop
endfacet
facet normal 0.866025403784443 -0.499999999999992 0.0
outer loop
vertex 325.911672214669 -0.655902819259846 11.5
vertex 326.610113135394 1.03028272407003 -1.5
vertex 326.610113135394 1.03028272407003 11.5
endloop
endfacet
facet normal 0.866025403784439 -0.5 1.45406727025075e-032
outer loop
vertex 316.422757268393 4.8225247792897 -1.5
vertex 316.026603725606 3.86612552350994 10.5
vertex 316.026603725606 3.86612552350994 -1.5
endloop
endfacet
facet normal 0.965925826289071 -0.258819045102513 9.56502320825805e-032
outer loop
vertex 316.026603725606 3.86612552350994 10.5
vertex 316.422757268393 4.8225247792897 -1.5
vertex 316.422757268393 4.8225247792897 10.5
endloop
endfacet
facet normal 1.0 -9.02695432429032e-015 0.0
outer loop
vertex 326.848338326668 2.83978270045014 -1.5
vertex 326.610113135394 1.03028272407003 11.5
vertex 326.610113135394 1.03028272407003 -1.5
endloop
endfacet
facet normal 0.96592582628907 -0.258819045102515 0.0
outer loop
vertex 326.610113135394 1.03028272407003 11.5
vertex 326.848338326668 2.83978270045014 -1.5
vertex 326.848338326668 2.83978270045014 11.5
endloop
endfacet
facet normal -0.258819045102524 0.965925826289068 0.0
outer loop
vertex 318.047467310868 9.59292854859518 11.5
vertex 319.856967287249 9.83115373986996 -1.5
vertex 318.047467310868 9.59292854859518 -1.5
endloop
endfacet
facet normal 0.0 1.0 0.0
outer loop
vertex 319.856967287249 9.83115373986996 -1.5
vertex 318.047467310868 9.59292854859518 11.5
vertex 319.856967287249 9.83115373986996 11.5
endloop
endfacet
facet normal 0.866025403784443 -0.499999999999992 0.0
outer loop
vertex 325.911672214669 -0.655902819259846 -1.5
vertex 324.800613159014 -2.10386317131494 11.5
vertex 324.800613159014 -2.10386317131494 -1.5
endloop
endfacet
facet normal 0.707106781186542 -0.707106781186553 0.0
outer loop
vertex 324.800613159014 -2.10386317131494 11.5
vertex 325.911672214669 -0.655902819259846 -1.5
vertex 325.911672214669 -0.655902819259846 11.5
endloop
endfacet
facet normal 0.707106781186542 -0.707106781186553 0.0
outer loop
vertex 324.800613159014 -2.10386317131494 11.5
vertex 323.352652806958 -3.21492222697029 -1.5
vertex 324.800613159014 -2.10386317131494 -1.5
endloop
endfacet
facet normal 0.500000000000001 -0.866025403784438 0.0
outer loop
vertex 323.352652806958 -3.21492222697029 -1.5
vertex 324.800613159014 -2.10386317131494 11.5
vertex 323.352652806958 -3.21492222697029 11.5
endloop
endfacet
facet normal 0.500000000000001 -0.866025403784438 0.0
outer loop
vertex 323.352652806958 -3.21492222697029 11.5
vertex 321.666467263629 -3.91336314769494 -1.5
vertex 323.352652806958 -3.21492222697029 -1.5
endloop
endfacet
facet normal 0.258819045102524 -0.965925826289068 0.0
outer loop
vertex 321.666467263629 -3.91336314769494 -1.5
vertex 323.352652806958 -3.21492222697029 11.5
vertex 321.666467263629 -3.91336314769494 11.5
endloop
endfacet
facet normal -0.500000000000001 0.866025403784438 0.0
outer loop
vertex 316.361281767539 8.89448762787053 11.5
vertex 318.047467310868 9.59292854859518 -1.5
vertex 316.361281767539 8.89448762787053 -1.5
endloop
endfacet
facet normal -0.258819045102524 0.965925826289068 0.0
outer loop
vertex 318.047467310868 9.59292854859518 -1.5
vertex 316.361281767539 8.89448762787053 11.5
vertex 318.047467310868 9.59292854859518 11.5
endloop
endfacet
facet normal 0.258819045102524 0.965925826289068 0.0
outer loop
vertex 321.666467263629 9.59292854859518 11.5
vertex 323.352652806958 8.89448762787053 -1.5
vertex 321.666467263629 9.59292854859518 -1.5
endloop
endfacet
facet normal 0.499999999999998 0.86602540378444 0.0
outer loop
vertex 323.352652806958 8.89448762787053 -1.5
vertex 321.666467263629 9.59292854859518 11.5
vertex 323.352652806958 8.89448762787053 11.5
endloop
endfacet
facet normal -0.258819045102523 -0.965925826289068 1.00577637905494e-018
outer loop
vertex 320.883310110308 6.6701462620928 10.5
vertex 319.856967287249 6.80526685812951 -1.5
vertex 320.883310110308 6.6701462620928 -1.5
endloop
endfacet
facet normal 0.0 -1.0 0.0
outer loop
vertex 319.856967287249 6.80526685812951 -1.5
vertex 320.883310110308 6.6701462620928 10.5
vertex 319.856967287249 6.80526685812951 10.5
endloop
endfacet
facet normal 0.499999999999996 0.866025403784441 1.34649245983194e-018
outer loop
vertex 317.874225208409 -0.594427318404969 10.5
vertex 318.830624464189 -0.990580861192565 -1.5
vertex 317.874225208409 -0.594427318404969 -1.5
endloop
endfacet
facet normal 0.258819045102523 0.965925826289068 1.00577637905556e-018
outer loop
vertex 318.830624464189 -0.990580861192565 -1.5
vertex 317.874225208409 -0.594427318404969 10.5
vertex 318.830624464189 -0.990580861192565 10.5
endloop
endfacet
facet normal 0.707106781186545 0.70710678118655 1.3739160843156e-018
outer loop
vertex 317.052946548666 0.0357619618671847 10.5
vertex 317.874225208409 -0.594427318404969 -1.5
vertex 317.052946548666 0.0357619618671847 -1.5
endloop
endfacet
facet normal 0.499999999999996 0.866025403784441 1.34649245983194e-018
outer loop
vertex 317.874225208409 -0.594427318404969 -1.5
vertex 317.052946548666 0.0357619618671847 10.5
vertex 317.874225208409 -0.594427318404969 10.5
endloop
endfacet
facet normal 0.258819045102524 -0.965925826289068 0.0
outer loop
vertex 321.666467263629 -3.91336314769494 11.5
vertex 319.856967287249 -4.15158833896972 -1.5
vertex 321.666467263629 -3.91336314769494 -1.5
endloop
endfacet
facet normal 0.0 -1.0 0.0
outer loop
vertex 319.856967287249 -4.15158833896972 -1.5
vertex 321.666467263629 -3.91336314769494 11.5
vertex 319.856967287249 -4.15158833896972 11.5
endloop
endfacet
facet normal 0.96592582628907 0.258819045102514 -2.85858839974735e-032
outer loop
vertex 316.026603725606 1.81343987739035 -1.5
vertex 316.422757268393 0.857040621610465 10.5
vertex 316.422757268393 0.857040621610465 -1.5
endloop
endfacet
facet normal 0.866025403784443 0.499999999999993 7.77397784145685e-019
outer loop
vertex 316.422757268393 0.857040621610465 10.5
vertex 316.026603725606 1.81343987739035 -1.5
vertex 316.026603725606 1.81343987739035 10.5
endloop
endfacet
facet normal 0.5 -0.866025403784439 -7.49974159661614e-019
outer loop
vertex 317.874225208409 6.27399271930521 10.5
vertex 317.052946548666 5.64380343903307 -1.5
vertex 317.874225208409 6.27399271930521 -1.5
endloop
endfacet
facet normal 0.707106781186542 -0.707106781186553 4.41899478656644e-032
outer loop
vertex 317.052946548666 5.64380343903307 -1.5
vertex 317.874225208409 6.27399271930521 10.5
vertex 317.052946548666 5.64380343903307 10.5
endloop
endfacet
facet normal -0.258819045102523 0.965925826289068 4.94171940268248e-019
outer loop
vertex 320.883310110308 -0.990580861192565 10.5
vertex 321.839709366088 -0.594427318404969 -1.5
vertex 320.883310110308 -0.990580861192565 -1.5
endloop
endfacet
facet normal -0.5 0.866025403784439 7.49974159661879e-019
outer loop
vertex 321.839709366088 -0.594427318404969 -1.5
vertex 320.883310110308 -0.990580861192565 10.5
vertex 321.839709366088 -0.594427318404969 10.5
endloop
endfacet
facet normal 0.0 -1.0 0.0
outer loop
vertex 319.856967287249 -4.15158833896972 11.5
vertex 318.047467310868 -3.91336314769494 -1.5
vertex 319.856967287249 -4.15158833896972 -1.5
endloop
endfacet
facet normal -0.258819045102524 -0.965925826289068 0.0
outer loop
vertex 318.047467310868 -3.91336314769494 -1.5
vertex 319.856967287249 -4.15158833896972 11.5
vertex 318.047467310868 -3.91336314769494 11.5
endloop
endfacet
facet normal -0.965925826289071 0.258819045102513 6.40103828747065e-031
outer loop
vertex 323.687330848891 1.81343987739032 10.5
vertex 323.291177306104 0.857040621610465 -1.5
vertex 323.291177306104 0.857040621610465 10.5
endloop
endfacet
facet normal -0.866025403784446 0.499999999999988 5.9651830017053e-019
outer loop
vertex 323.291177306104 0.857040621610465 -1.5
vertex 323.687330848891 1.81343987739032 10.5
vertex 323.687330848891 1.81343987739032 -1.5
endloop
endfacet
facet normal -0.258819045102524 -0.965925826289068 0.0
outer loop
vertex 318.047467310868 -3.91336314769494 11.5
vertex 316.361281767539 -3.21492222697029 -1.5
vertex 318.047467310868 -3.91336314769494 -1.5
endloop
endfacet
facet normal -0.499999999999998 -0.86602540378444 0.0
outer loop
vertex 316.361281767539 -3.21492222697029 -1.5
vertex 318.047467310868 -3.91336314769494 11.5
vertex 316.361281767539 -3.21492222697029 11.5
endloop
endfacet
facet normal 0.704062592219634 1.3404279925918e-015 0.710137920573863
outer loop
vertex 315.891483129569 2.83978270045012 10.5
vertex 315.052342963438 4.12717790795001 11.5
vertex 314.882854168989 2.83978270045012 11.5
endloop
endfacet
facet normal 0.680072241148974 -0.182224807810684 0.710137920573863
outer loop
vertex 315.052342963438 4.12717790795001 11.5
vertex 315.891483129569 2.83978270045012 10.5
vertex 316.026603725606 3.86612552350994 10.5
endloop
endfacet
facet normal 0.182224807810701 -0.680072241148973 0.71013792057386
outer loop
vertex 318.830624464189 6.6701462620928 10.5
vertex 319.856967287249 7.81389581870968 11.5
vertex 318.569572079749 7.6444070242603 11.5
endloop
endfacet
facet normal 0.0 -0.70406259221963 0.710137920573866
outer loop
vertex 319.856967287249 7.81389581870968 11.5
vertex 318.830624464189 6.6701462620928 10.5
vertex 319.856967287249 6.80526685812951 10.5
endloop
endfacet
facet normal 0.49784743333828 -0.497847433338292 0.710137920573857
outer loop
vertex 317.052946548666 5.64380343903307 10.5
vertex 317.369910728119 7.14749102216029 11.5
vertex 316.339738170938 6.35701181676041 11.5
endloop
endfacet
facet normal 0.35203129610982 -0.609736090716536 0.710137920573853
outer loop
vertex 317.369910728119 7.14749102216029 11.5
vertex 317.052946548666 5.64380343903307 10.5
vertex 317.874225208409 6.27399271930521 10.5
endloop
endfacet
facet normal 0.609736090716531 0.352031296109816 0.71013792057386
outer loop
vertex 315.549258965538 0.352726141320414 11.5
vertex 316.026603725606 1.81343987739035 10.5
vertex 315.052342963438 1.55238749295025 11.5
endloop
endfacet
facet normal 0.680072241148972 0.182224807810687 0.710137920573864
outer loop
vertex 316.026603725606 1.81343987739035 10.5
vertex 315.549258965538 0.352726141320414 11.5
vertex 316.422757268393 0.857040621610465 10.5
endloop
endfacet
facet normal 0.680072241148973 0.182224807810686 0.710137920573864
outer loop
vertex 315.052342963438 1.55238749295025 11.5
vertex 315.891483129569 2.83978270045012 10.5
vertex 314.882854168989 2.83978270045012 11.5
endloop
endfacet
facet normal 0.704062592219634 1.3404279925918e-015 0.710137920573863
outer loop
vertex 315.891483129569 2.83978270045012 10.5
vertex 315.052342963438 1.55238749295025 11.5
vertex 316.026603725606 1.81343987739035 10.5
endloop
endfacet
facet normal 0.352031296109821 -0.609736090716536 0.710137920573853
outer loop
vertex 317.874225208409 6.27399271930521 10.5
vertex 318.569572079749 7.6444070242603 11.5
vertex 317.369910728119 7.14749102216029 11.5
endloop
endfacet
facet normal 0.182224807810693 -0.680072241148975 0.71013792057386
outer loop
vertex 318.569572079749 7.6444070242603 11.5
vertex 317.874225208409 6.27399271930521 10.5
vertex 318.830624464189 6.6701462620928 10.5
endloop
endfacet
facet normal 0.609736090716528 -0.352031296109819 0.71013792057386
outer loop
vertex 316.422757268393 4.8225247792897 10.5
vertex 316.339738170938 6.35701181676041 11.5
vertex 315.549258965538 5.32683925957975 11.5
endloop
endfacet
facet normal 0.497847433338284 -0.497847433338288 0.710137920573857
outer loop
vertex 316.339738170938 6.35701181676041 11.5
vertex 316.422757268393 4.8225247792897 10.5
vertex 317.052946548666 5.64380343903307 10.5
endloop
endfacet
facet normal 0.497847433338283 0.497847433338284 0.71013792057386
outer loop
vertex 316.339738170938 -0.677446415860192 11.5
vertex 316.422757268393 0.857040621610465 10.5
vertex 315.549258965538 0.352726141320414 11.5
endloop
endfacet
facet normal 0.60973609071653 0.352031296109817 0.71013792057386
outer loop
vertex 316.422757268393 0.857040621610465 10.5
vertex 316.339738170938 -0.677446415860192 11.5
vertex 317.052946548666 0.0357619618671847 10.5
endloop
endfacet
facet normal 0.680072241148974 -0.182224807810686 0.710137920573863
outer loop
vertex 316.026603725606 3.86612552350994 10.5
vertex 315.549258965538 5.32683925957975 11.5
vertex 315.052342963438 4.12717790795001 11.5
endloop
endfacet
facet normal 0.609736090716529 -0.352031296109818 0.71013792057386
outer loop
vertex 315.549258965538 5.32683925957975 11.5
vertex 316.026603725606 3.86612552350994 10.5
vertex 316.422757268393 4.8225247792897 10.5
endloop
endfacet
facet normal -0.182224807810699 -0.680072241148973 0.710137920573861
outer loop
vertex 320.883310110308 6.6701462620928 10.5
vertex 319.856967287249 7.81389581870968 11.5
vertex 319.856967287249 6.80526685812951 10.5
endloop
endfacet
facet normal 0.0 -0.70406259221963 0.710137920573866
outer loop
vertex 319.856967287249 7.81389581870968 11.5
vertex 320.883310110308 6.6701462620928 10.5
vertex 321.144362494748 7.6444070242603 11.5
endloop
endfacet
facet normal 0.35203129610982 0.60973609071653 0.710137920573858
outer loop
vertex 317.369910728119 -1.46792562126003 11.5
vertex 317.052946548666 0.0357619618671847 10.5
vertex 316.339738170938 -0.677446415860192 11.5
endloop
endfacet
facet normal 0.497847433338284 0.497847433338283 0.71013792057386
outer loop
vertex 317.052946548666 0.0357619618671847 10.5
vertex 317.369910728119 -1.46792562126003 11.5
vertex 317.874225208409 -0.594427318404969 10.5
endloop
endfacet
facet normal -0.704062592219633 6.87807113698662e-015 0.710137920573864
outer loop
vertex 323.822451444928 2.83978270045021 10.5
vertex 324.661591611059 4.12717790794999 11.5
vertex 323.687330848891 3.86612552350989 10.5
endloop
endfacet
facet normal -0.680072241148972 -0.182224807810689 0.710137920573864
outer loop
vertex 324.661591611059 4.12717790794999 11.5
vertex 323.822451444928 2.83978270045021 10.5
vertex 324.831080405508 2.83978270045019 11.5
endloop
endfacet
facet normal -0.182224807810693 0.680072241148975 0.71013792057386
outer loop
vertex 321.144362494748 -1.96484162336006 11.5
vertex 321.839709366088 -0.594427318404969 10.5
vertex 320.883310110308 -0.990580861192565 10.5
endloop
endfacet
facet normal -0.352031296109821 0.609736090716536 0.710137920573853
outer loop
vertex 321.839709366088 -0.594427318404969 10.5
vertex 321.144362494748 -1.96484162336006 11.5
vertex 322.344023846378 -1.46792562126005 11.5
endloop
endfacet
facet normal -0.609736090716531 0.35203129610981 0.710137920573863
outer loop
vertex 324.164675608959 0.352726141320391 11.5
vertex 323.687330848891 1.81343987739032 10.5
vertex 323.291177306104 0.857040621610465 10.5
endloop
endfacet
facet normal -0.680072241148976 0.182224807810686 0.710137920573862
outer loop
vertex 323.687330848891 1.81343987739032 10.5
vertex 324.164675608959 0.352726141320391 11.5
vertex 324.661591611059 1.55238749295027 11.5
endloop
endfacet
facet normal -0.60973609071653 -0.352031296109817 0.71013792057386
outer loop
vertex 323.291177306104 4.82252477928977 10.5
vertex 323.374196403559 6.35701181676043 11.5
vertex 322.660988025832 5.64380343903305 10.5
endloop
endfacet
facet normal -0.497847433338283 -0.497847433338284 0.71013792057386
outer loop
vertex 323.374196403559 6.35701181676043 11.5
vertex 323.291177306104 4.82252477928977 10.5
vertex 324.164675608959 5.32683925957982 11.5
endloop
endfacet
facet normal -0.497847433338281 0.49784743333829 0.710137920573858
outer loop
vertex 323.374196403559 -0.677446415860169 11.5
vertex 323.291177306104 0.857040621610465 10.5
vertex 322.660988025831 0.0357619618671621 10.5
endloop
endfacet
facet normal -0.609736090716532 0.352031296109809 0.710137920573863
outer loop
vertex 323.291177306104 0.857040621610465 10.5
vertex 323.374196403559 -0.677446415860169 11.5
vertex 324.164675608959 0.352726141320391 11.5
endloop
endfacet
facet normal -0.352031296109814 -0.609736090716534 0.710137920573858
outer loop
vertex 321.839709366088 6.27399271930521 10.5
vertex 321.144362494748 7.6444070242603 11.5
vertex 320.883310110308 6.6701462620928 10.5
endloop
endfacet
facet normal -0.18222480781069 -0.680072241148975 0.710137920573861
outer loop
vertex 321.144362494748 7.6444070242603 11.5
vertex 321.839709366088 6.27399271930521 10.5
vertex 322.344023846378 7.14749102216027 11.5
endloop
endfacet
facet normal -0.35203129610982 0.609736090716536 0.710137920573853
outer loop
vertex 322.344023846378 -1.46792562126005 11.5
vertex 322.660988025831 0.0357619618671621 10.5
vertex 321.839709366088 -0.594427318404969 10.5
endloop
endfacet
facet normal -0.497847433338277 0.497847433338294 0.710137920573858
outer loop
vertex 322.660988025831 0.0357619618671621 10.5
vertex 322.344023846378 -1.46792562126005 11.5
vertex 323.374196403559 -0.677446415860169 11.5
endloop
endfacet
facet normal 0.0 0.70406259221963 0.710137920573866
outer loop
vertex 319.856967287249 -2.13433041780945 11.5
vertex 318.830624464189 -0.990580861192565 10.5
vertex 318.569572079749 -1.96484162336006 11.5
endloop
endfacet
facet normal 0.182224807810699 0.680072241148973 0.710137920573861
outer loop
vertex 318.830624464189 -0.990580861192565 10.5
vertex 319.856967287249 -2.13433041780945 11.5
vertex 319.856967287249 -1.12570145722928 10.5
endloop
endfacet
facet normal -0.680072241148977 0.182224807810682 0.710137920573862
outer loop
vertex 324.661591611059 1.55238749295027 11.5
vertex 323.822451444928 2.83978270045021 10.5
vertex 323.687330848891 1.81343987739032 10.5
endloop
endfacet
facet normal -0.704062592219633 6.87807113698662e-015 0.710137920573864
outer loop
vertex 323.822451444928 2.83978270045021 10.5
vertex 324.661591611059 1.55238749295027 11.5
vertex 324.831080405508 2.83978270045019 11.5
endloop
endfacet
facet normal -0.182224807810693 0.680072241148975 0.71013792057386
outer loop
vertex 321.144362494748 -1.96484162336006 11.5
vertex 319.856967287249 -1.12570145722928 10.5
vertex 319.856967287249 -2.13433041780945 11.5
endloop
endfacet
facet normal 8.37767495369874e-018 0.70406259221963 0.710137920573866
outer loop
vertex 319.856967287249 -1.12570145722928 10.5
vertex 321.144362494748 -1.96484162336006 11.5
vertex 320.883310110308 -0.990580861192565 10.5
endloop
endfacet
facet normal -0.680072241148972 -0.18222480781069 0.710137920573864
outer loop
vertex 323.687330848891 3.86612552350989 10.5
vertex 324.164675608959 5.32683925957982 11.5
vertex 323.291177306104 4.82252477928977 10.5
endloop
endfacet
facet normal -0.609736090716531 -0.352031296109816 0.71013792057386
outer loop
vertex 324.164675608959 5.32683925957982 11.5
vertex 323.687330848891 3.86612552350989 10.5
vertex 324.661591611059 4.12717790794999 11.5
endloop
endfacet
facet normal -0.497847433338284 -0.497847433338283 0.71013792057386
outer loop
vertex 322.660988025832 5.64380343903305 10.5
vertex 322.344023846378 7.14749102216027 11.5
vertex 321.839709366088 6.27399271930521 10.5
endloop
endfacet
facet normal -0.35203129610982 -0.60973609071653 0.710137920573858
outer loop
vertex 322.344023846378 7.14749102216027 11.5
vertex 322.660988025832 5.64380343903305 10.5
vertex 323.374196403559 6.35701181676043 11.5
endloop
endfacet
facet normal 0.18222480781069 0.680072241148975 0.710137920573861
outer loop
vertex 318.569572079749 -1.96484162336006 11.5
vertex 317.874225208409 -0.594427318404969 10.5
vertex 317.369910728119 -1.46792562126003 11.5
endloop
endfacet
facet normal 0.352031296109814 0.609736090716534 0.710137920573858
outer loop
vertex 317.874225208409 -0.594427318404969 10.5
vertex 318.569572079749 -1.96484162336006 11.5
vertex 318.830624464189 -0.990580861192565 10.5
endloop
endfacet
endsolid plot4bb
